<svg version="1.1" xmlns="http://www.w3.org/2000/svg" width="16" height="16" viewBox="0 0 16 16">
<title>fitting_room_failure</title>
<path fill="#000" d="M15.779 4.013l-4.867-2.412c-0.502 0.695-1.615 1.18-2.912 1.18s-2.41-0.485-2.912-1.18l-4.867 2.412c-0.197 0.1-0.277 0.34-0.18 0.537l1.43 2.862c0.1 0.197 0.34 0.277 0.537 0.18l1.415-0.692c0.265-0.13 0.575 0.062 0.575 0.36v6.339c0 0.442 0.357 0.8 0.8 0.8h6.399c0.442 0 0.8-0.357 0.8-0.8v-6.342c0-0.295 0.31-0.49 0.575-0.36l1.415 0.692c0.197 0.1 0.437 0.020 0.537-0.18l1.432-2.86c0.1-0.197 0.020-0.44-0.177-0.537z"></path>
<path fill="#f00" d="M9.697 8l6.186-6.186c0.156-0.156 0.156-0.41 0-0.566l-1.132-1.132c-0.156-0.156-0.41-0.156-0.566 0l-6.186 6.186-6.186-6.186c-0.156-0.156-0.41-0.156-0.566 0l-1.132 1.132c-0.156 0.156-0.156 0.41 0 0.566l6.186 6.186-6.186 6.186c-0.156 0.156-0.156 0.41 0 0.566l1.132 1.132c0.156 0.156 0.41 0.156 0.566 0l6.186-6.186 6.186 6.186c0.156 0.156 0.41 0.156 0.566 0l1.132-1.132c0.156-0.156 0.156-0.41 0-0.566l-6.186-6.186z"></path>
</svg>
