<svg version="1.1" xmlns="http://www.w3.org/2000/svg" width="16" height="16" viewBox="0 0 16 16">
<title>payment_card_failure</title>
<path fill="#000" d="M0 12.889c0 0.736 0.597 1.333 1.333 1.333h13.333c0.736 0 1.333-0.597 1.333-1.333v-4.889h-16v4.889zM5.333 11c0-0.183 0.15-0.333 0.333-0.333h3.778c0.183 0 0.333 0.15 0.333 0.333v1.111c0 0.183-0.15 0.333-0.333 0.333h-3.778c-0.183 0-0.333-0.15-0.333-0.333v-1.111zM1.778 11c0-0.183 0.15-0.333 0.333-0.333h2c0.183 0 0.333 0.15 0.333 0.333v1.111c0 0.183-0.15 0.333-0.333 0.333h-2c-0.183 0-0.333-0.15-0.333-0.333v-1.111zM16 3.111v1.333h-16v-1.333c0-0.736 0.597-1.333 1.333-1.333h13.333c0.736 0 1.333 0.597 1.333 1.333z"></path>
<path fill="#f00" d="M9.697 8l6.186-6.186c0.156-0.156 0.156-0.41 0-0.566l-1.132-1.132c-0.156-0.156-0.41-0.156-0.566 0l-6.186 6.186-6.186-6.186c-0.156-0.156-0.41-0.156-0.566 0l-1.132 1.132c-0.156 0.156-0.156 0.41 0 0.566l6.186 6.186-6.186 6.186c-0.156 0.156-0.156 0.41 0 0.566l1.132 1.132c0.156 0.156 0.41 0.156 0.566 0l6.186-6.186 6.186 6.186c0.156 0.156 0.41 0.156 0.566 0l1.132-1.132c0.156-0.156 0.156-0.41 0-0.566l-6.186-6.186z"></path>
</svg>
