<svg version="1.1" xmlns="http://www.w3.org/2000/svg" width="16" height="16" viewBox="0 0 16 16">
<title>payment_card_success</title>
<path d="M0.001 12.889c0 0.736 0.597 1.333 1.333 1.333h13.332c0.736 0 1.333-0.597 1.333-1.333v-4.889h-15.999v4.889zM5.334 11c0-0.183 0.15-0.333 0.333-0.333h3.778c0.183 0 0.333 0.15 0.333 0.333v1.111c0 0.183-0.15 0.333-0.333 0.333h-3.778c-0.183 0-0.333-0.15-0.333-0.333v-1.111zM1.779 11c0-0.183 0.15-0.333 0.333-0.333h2c0.183 0 0.333 0.15 0.333 0.333v1.111c0 0.183-0.15 0.333-0.333 0.333h-2c-0.183 0-0.333-0.15-0.333-0.333v-1.111zM16 3.111v1.333h-15.999v-1.333c0-0.736 0.597-1.333 1.333-1.333h13.332c0.736 0 1.333 0.597 1.333 1.333z"></path>
</svg>
