<svg version="1.1" xmlns="http://www.w3.org/2000/svg" width="16" height="16" viewBox="0 0 16 16">
<title>boxberry</title>
<path fill="#86bb2d" d="M2.418 5.438c0.422-0.143 0.874 0.327 0.711 0.741-0.117 0.436-0.769 0.536-1.014 0.161-0.249-0.305-0.064-0.795 0.305-0.902z"></path>
<path fill="#dd214b" d="M1.444 6.437c0.45-0.133 0.878 0.404 0.657 0.817-0.173 0.394-0.783 0.434-1.002 0.064-0.217-0.313-0.032-0.801 0.346-0.88z"></path>
<path fill="#dd214b" d="M3.461 6.435c0.337-0.086 0.701 0.203 0.691 0.552 0.024 0.317-0.265 0.606-0.579 0.595-0.281 0-0.54-0.233-0.562-0.514-0.048-0.287 0.173-0.573 0.45-0.633z"></path>
<path fill="#dd214b" d="M0.43 7.449c0.327-0.099 0.707 0.163 0.721 0.508 0.036 0.295-0.195 0.582-0.488 0.618-0.305 0.052-0.625-0.185-0.657-0.494-0.044-0.279 0.151-0.567 0.424-0.631z"></path>
<path fill="#dd214b" d="M2.414 7.451c0.293-0.096 0.631 0.086 0.719 0.378 0.105 0.293-0.086 0.641-0.382 0.721-0.295 0.102-0.645-0.086-0.725-0.386-0.099-0.293 0.098-0.629 0.388-0.715z"></path>
<path fill="#dd214b" d="M4.431 7.449c0.333-0.102 0.709 0.159 0.727 0.508 0.038 0.325-0.251 0.633-0.578 0.623-0.295 0.008-0.566-0.245-0.572-0.54-0.024-0.265 0.167-0.522 0.422-0.59z"></path>
<path fill="#dd214b" d="M1.402 8.457c0.317-0.111 0.679 0.11 0.741 0.434 0.080 0.337-0.207 0.695-0.552 0.693-0.299 0.018-0.57-0.239-0.584-0.534-0.024-0.255 0.147-0.516 0.394-0.591z"></path>
<path fill="#dd214b" d="M3.42 8.453c0.325-0.108 0.691 0.137 0.729 0.472 0.054 0.319-0.209 0.651-0.538 0.657-0.269 0.020-0.53-0.179-0.585-0.442-0.086-0.287 0.111-0.609 0.394-0.687z"></path>
<path fill="#dd214b" d="M2.374 9.471c0.313-0.127 0.705 0.076 0.773 0.408 0.137 0.472-0.462 0.9-0.866 0.621-0.408-0.219-0.346-0.886 0.094-1.030z"></path>
<path fill="#dd214b" d="M6.307 7.461c-0.408 0.138-0.387 0.855 0.044 0.948 0.294 0.070 0.571-0.216 0.533-0.506 0.008-0.293-0.293-0.536-0.578-0.442zM5.806 6.744c0.076 0.010 0.191 0.010 0.204 0.109 0.029 0.198 0.002 0.399 0.014 0.599 0.218-0.215 0.587-0.275 0.836-0.080 0.321 0.249 0.341 0.792 0.043 1.066-0.275 0.267-0.791 0.217-0.998-0.111-0.135-0.209-0.107-0.469-0.11-0.706 0.006-0.292-0.010-0.585 0.010-0.877zM10.548 7.463c-0.403 0.146-0.368 0.878 0.070 0.95 0.274 0.053 0.542-0.201 0.516-0.476 0.030-0.308-0.29-0.576-0.587-0.474zM10.052 6.746c0.074 0.015 0.203-0.001 0.207 0.106 0.027 0.198 0.003 0.4 0.010 0.599 0.214-0.192 0.539-0.272 0.794-0.112 0.391 0.239 0.408 0.894 0.029 1.153-0.286 0.208-0.754 0.142-0.938-0.171-0.12-0.186-0.11-0.416-0.109-0.629 0.005-0.315-0.008-0.63 0.007-0.945zM11.78 7.769c0.241 0 0.482 0.006 0.723-0.002-0.004-0.128-0.051-0.263-0.169-0.329-0.238-0.114-0.556 0.055-0.553 0.331zM11.724 7.407c0.22-0.212 0.614-0.248 0.842-0.029 0.146 0.143 0.173 0.357 0.173 0.552-0.327 0.014-0.654-0.002-0.98 0.010 0.006 0.26 0.231 0.483 0.495 0.461 0.161 0.010 0.379-0.221 0.46 0.015-0.266 0.207-0.666 0.25-0.937 0.031-0.318-0.243-0.331-0.762-0.053-1.041zM13.174 7.557c0.106-0.168 0.256-0.328 0.473-0.32 0.002 0.069 0.005 0.138 0.007 0.208-0.158 0.018-0.326 0.080-0.4 0.232-0.142 0.274-0.051 0.593-0.088 0.886-0.072 0-0.142 0-0.213 0-0.018-0.434-0.009-0.868-0.005-1.302 0.065 0.008 0.131 0.018 0.197 0.027 0.011 0.089 0.020 0.179 0.029 0.268zM14.089 7.557c0.104-0.169 0.255-0.329 0.473-0.321 0.002 0.076 0.002 0.152 0.001 0.229-0.162-0.008-0.323 0.064-0.399 0.212-0.146 0.273-0.054 0.593-0.088 0.887-0.072 0-0.142 0-0.212 0-0.012-0.434-0.006-0.869-0.002-1.304 0.193-0.041 0.233 0.149 0.228 0.296zM7.849 7.462c-0.283 0.096-0.409 0.465-0.256 0.719 0.123 0.236 0.463 0.307 0.677 0.152 0.26-0.179 0.267-0.621 0.010-0.805-0.121-0.094-0.286-0.1-0.43-0.068zM7.779 7.283c0.337-0.103 0.75 0.053 0.876 0.397 0.155 0.348-0.062 0.79-0.425 0.893-0.346 0.123-0.778-0.061-0.893-0.419-0.127-0.35 0.077-0.775 0.442-0.871zM8.713 7.267c0.341-0.097 0.434 0.281 0.597 0.487 0.173-0.2 0.252-0.588 0.6-0.487-0.136 0.215-0.301 0.412-0.419 0.637 0.097 0.248 0.294 0.45 0.419 0.688-0.351 0.095-0.423-0.31-0.599-0.51-0.164 0.208-0.249 0.605-0.598 0.509 0.134-0.233 0.321-0.439 0.42-0.688-0.114-0.227-0.283-0.423-0.419-0.637zM14.698 7.266c0.088 0.008 0.213-0.033 0.263 0.066 0.162 0.295 0.226 0.67 0.408 0.934 0.127-0.304 0.22-0.622 0.353-0.925 0.046-0.109 0.185-0.066 0.279-0.076-0.223 0.528-0.434 1.063-0.656 1.592-0.092 0.216-0.353 0.307-0.569 0.228 0.048-0.138 0.2-0.147 0.309-0.211 0.095-0.11 0.204-0.274 0.119-0.419-0.171-0.396-0.353-0.787-0.505-1.19z"></path>
</svg>
