<svg version="1.1" xmlns="http://www.w3.org/2000/svg" width="16" height="16" viewBox="0 0 16 16">
<title>cdek</title>
<path fill="#57a52c" d="M2.178 5.34c-0.825 0.155-1.553 0.723-1.913 1.482-0.435 0.883-0.328 2.001 0.262 2.787 0.572 0.786 1.593 1.225 2.561 1.074 0.874-0.115 1.664-0.697 2.046-1.487 0.417-0.83 0.364-1.873-0.142-2.654-0.577-0.936-1.744-1.42-2.813-1.203v0zM5.258 7.208c-0.28 0.173-0.604 0.235-0.91 0.351-0.936 0.328-1.846 0.812-2.52 1.553-0.288 0.293-0.501 0.648-0.768 0.959 0.062-0.39 0.191-0.768 0.213-1.163-0.213 0.222-0.377 0.479-0.564 0.719 0.173-0.688 0.28-1.398 0.519-2.068-0.164-0.413-0.479-0.754-0.657-1.167 1.411 0.484 2.915 0.164 4.358 0.342-0.373 0.186-0.803 0.239-1.167 0.457 0.501 0.036 0.998-0.049 1.495 0.018v0z"></path>
<path fill="#1f1a17" d="M9.681 9.297c0.51-0.178 0.879-0.626 1.056-1.123 0.124-0.337 0.248-0.697 0.173-1.056-0.036-0.209-0.209-0.364-0.399-0.435-0.439-0.164-0.914-0.129-1.371-0.133-0.28 0.648-0.555 1.296-0.821 1.943 0.191 0.009 0.386 0.049 0.577 0.013 0.16-0.036 0.271-0.173 0.333-0.311 0.16-0.351 0.311-0.701 0.462-1.056 0.138 0.040 0.315 0.049 0.404 0.182 0.075 0.195 0.009 0.413-0.058 0.599-0.115 0.275-0.262 0.555-0.506 0.732-0.346 0.191-0.754 0.115-1.132 0.12-0.306 0.036-0.355 0.408-0.47 0.639 0.586 0.027 1.194 0.093 1.753-0.115v0z"></path>
<path fill="#1f1a17" d="M7.347 7.447c0.169-0.204 0.453-0.204 0.688-0.248 0.173-0.031 0.395 0.018 0.515-0.138 0.102-0.151 0.142-0.333 0.209-0.497-0.586-0.036-1.198 0-1.726 0.275-0.581 0.333-0.834 1.007-0.954 1.633-0.044 0.288-0.031 0.661 0.248 0.83 0.284 0.155 0.626 0.146 0.936 0.129 0.28-0.027 0.457-0.284 0.524-0.537-0.257-0.031-0.524-0.022-0.772-0.107-0.164-0.062-0.16-0.266-0.133-0.408 0.075-0.342 0.231-0.67 0.466-0.932v0z"></path>
<path fill="#1f1a17" d="M16 6.555c-0.333 0.022-0.701-0.080-1.003 0.102-0.373 0.275-0.515 0.799-0.936 1.012 0.133-0.377 0.302-0.741 0.444-1.118-0.262 0-0.524 0-0.786 0-0.395 0.954-0.808 1.904-1.203 2.858 0.271 0 0.541 0 0.808 0 0.164-0.399 0.328-0.794 0.497-1.189 0.093 0.018 0.204 0.027 0.257 0.12 0.178 0.293 0.107 0.67 0.257 0.972 0.182 0.217 0.501 0.111 0.745 0.111-0.071-0.408-0.107-0.83-0.248-1.22-0.036-0.124-0.155-0.187-0.231-0.275 0.595-0.306 0.972-0.879 1.398-1.371v0z"></path>
<path fill="#1f1a17" d="M12.65 7.238c0.155 0 0.346-0.009 0.439-0.151 0.107-0.164 0.151-0.355 0.222-0.537-0.448 0-0.896 0-1.344 0-0.142 0-0.311 0.027-0.395 0.155-0.102 0.164-0.146 0.355-0.217 0.533 0.431 0.005 0.865 0 1.296 0v0z"></path>
<path fill="#1f1a17" d="M12.645 8.201c0.098-0.155 0.146-0.337 0.209-0.51-0.421-0.005-0.848-0.013-1.274-0.022-0.16 0.005-0.351 0.009-0.453 0.151-0.111 0.164-0.16 0.364-0.231 0.546 0.444 0 0.892 0 1.336 0 0.146-0.005 0.324-0.027 0.413-0.164v0z"></path>
<path fill="#1f1a17" d="M11.775 9.417c0.151 0 0.337-0.022 0.426-0.164 0.098-0.16 0.142-0.342 0.213-0.51-0.439 0-0.883-0.018-1.322-0.018-0.151 0-0.337 0.022-0.421 0.164-0.102 0.16-0.151 0.351-0.217 0.528 0.444 0 0.883 0 1.322 0v0z"></path>
</svg>
