<svg version="1.1" xmlns="http://www.w3.org/2000/svg" width="16" height="16" viewBox="0 0 16 16">
<title>dalli</title>
<path fill="#00a6ff" d="M3.072 10.752l-2.784-0.807c-0.204-0.047-0.325-0.257-0.278-0.456l0.734-2.857c0.047-0.199 0.257-0.325 0.456-0.273l2.789 0.807c0.199 0.047 0.325 0.257 0.273 0.456l-0.734 2.857c-0.047 0.199-0.252 0.325-0.456 0.273z"></path>
<path fill="#0055ab" d="M3.853 10.784l1.395-0.676c0.11-0.016 0.231-0.199 0.278-0.398l0.661-2.585c0.047-0.194 0-0.336-0.105-0.32l-1.253 0.388c-0.22 0.047-0.257 0.225-0.299 0.419l-0.781 2.852c-0.047 0.194 0.005 0.341 0.105 0.32z"></path>
<path fill="#00a6ff" d="M3.863 6.862l-2.223-0.661c-0.026-0.005-0.021-0.042 0.005-0.047l1.326-0.079c0.063-0.005 0.131 0.021 0.173 0.068l0.739 0.682c0.021 0.016 0.005 0.042-0.021 0.037z"></path>
<path fill="#00a6ff" d="M3.916 5.138l-1.41 0.163c-0.084 0-0.163 0.010-0.231 0.047l-0.744 0.545c-0.063 0.037-0.031 0.131 0.047 0.126l1.054-0.121c0.152-0.005 0.367-0.073 0.493-0.142l0.828-0.503c0.063-0.037 0.037-0.115-0.037-0.115z"></path>
<path fill="#00a6ff" d="M6.023 6.474l-0.734-0.545c-0.073-0.047-0.152-0.073-0.231-0.084l-1.552 0.147c-0.073-0.005-0.11 0.094-0.047 0.136 0 0 0.933 0.76 1.132 0.823l1.384-0.341c0.073 0.010 0.11-0.089 0.047-0.136z"></path>
<path fill="#0055ab" d="M12.797 7.654l0.357-1.363v-0.047c0-0.037-0.016-0.063-0.063-0.068l0.010-0.042h0.309c0.063 0 0.1 0.031 0.1 0.094 0 0.016-0.005 0.031-0.010 0.052l-0.351 1.363v0.042c0 0.042 0.021 0.068 0.068 0.068l-0.010 0.047h-0.309c-0.073 0-0.105-0.037-0.105-0.105v-0.042z"></path>
<path fill="#0055ab" d="M7.345 6.134h0.697c0.184 0 0.325 0.042 0.409 0.126 0.089 0.084 0.136 0.21 0.136 0.367 0 0.058-0.005 0.11-0.010 0.163-0.005 0.047-0.021 0.11-0.042 0.178-0.084 0.341-0.184 0.561-0.288 0.671-0.11 0.11-0.283 0.163-0.535 0.163h-0.571c-0.068 0-0.105-0.037-0.105-0.105 0-0.021 0-0.037 0.005-0.047l0.351-1.363c0-0.010 0.005-0.016 0.005-0.026s0-0.016 0-0.021c0-0.037-0.021-0.063-0.068-0.068l0.016-0.037zM7.722 6.396l-0.294 1.138h0.262c0.142 0 0.241-0.031 0.294-0.1 0.058-0.068 0.121-0.22 0.184-0.467 0.037-0.131 0.052-0.236 0.052-0.315 0-0.089-0.021-0.152-0.068-0.194-0.042-0.042-0.115-0.063-0.21-0.063h-0.22z"></path>
<path fill="#0055ab" d="M10.003 7.801h-0.283c-0.084 0-0.131-0.047-0.131-0.126l-0.005-0.299h-0.535l-0.157 0.241c-0.026 0.037-0.037 0.063-0.037 0.084 0 0.037 0.026 0.052 0.073 0.052l-0.016 0.042h-0.336c-0.052 0-0.084-0.016-0.084-0.047 0-0.021 0.010-0.042 0.026-0.068l0.891-1.368c0.016-0.026 0.026-0.052 0.026-0.073 0-0.031-0.021-0.052-0.068-0.068l0.016-0.042h0.372c0.042 0 0.073 0.010 0.094 0.031 0.026 0.021 0.037 0.052 0.037 0.084l0.031 1.389c0 0.042 0.005 0.073 0.016 0.084 0.010 0.016 0.037 0.026 0.068 0.031v0.052zM9.562 6.59l-0.346 0.519h0.357l-0.010-0.519z"></path>
<path fill="#0055ab" d="M10.616 7.533h0.461c0.052 0 0.094-0.005 0.115-0.010 0.016-0.010 0.042-0.026 0.063-0.063h0.047l-0.058 0.225c-0.021 0.079-0.073 0.121-0.163 0.121h-0.765c-0.068 0-0.1-0.037-0.1-0.105v-0.047l0.357-1.363v-0.047c0-0.037-0.021-0.063-0.063-0.068l0.010-0.042h0.309c0.063 0 0.1 0.031 0.1 0.094 0 0.016-0.005 0.031-0.010 0.052l-0.304 1.253z"></path>
<path fill="#0055ab" d="M11.9 7.533h0.461c0.052 0 0.094-0.005 0.115-0.010 0.016-0.010 0.042-0.026 0.063-0.063h0.047l-0.058 0.225c-0.021 0.079-0.073 0.121-0.163 0.121h-0.765c-0.068 0-0.1-0.037-0.1-0.105v-0.047l0.357-1.363v-0.047c0-0.037-0.016-0.063-0.063-0.068l0.010-0.042h0.309c0.063 0 0.1 0.031 0.1 0.094 0 0.016-0.005 0.031-0.010 0.052l-0.304 1.253z"></path>
<path fill="#0055ab" d="M12.797 7.654l0.357-1.363v-0.047c0-0.037-0.016-0.063-0.063-0.068l0.010-0.042h0.309c0.063 0 0.1 0.031 0.1 0.094 0 0.016-0.005 0.031-0.010 0.052l-0.351 1.363v0.042c0 0.042 0.021 0.068 0.068 0.068l-0.010 0.047h-0.309c-0.073 0-0.105-0.037-0.105-0.105l0.005-0.042z"></path>
<path fill="#00a6ff" d="M7.25 8.262h0.556l-0.031 0.136c-0.010 0.052-0.031 0.084-0.052 0.1-0.026 0.021-0.068 0.031-0.121 0.031h-0.299c-0.068 0-0.121 0.010-0.152 0.031-0.037 0.016-0.063 0.058-0.073 0.105l-0.010 0.058c0 0.026 0.010 0.047 0.021 0.073 0.016 0.016 0.047 0.037 0.089 0.052l0.252 0.1c0.089 0.031 0.152 0.073 0.194 0.121 0.047 0.058 0.068 0.126 0.068 0.215 0 0.031 0 0.063-0.005 0.084-0.005 0.016-0.010 0.042-0.016 0.079-0.042 0.163-0.11 0.288-0.189 0.362-0.084 0.073-0.215 0.115-0.377 0.115h-0.488c-0.052 0-0.094-0.010-0.121-0.026-0.031-0.016-0.042-0.047-0.042-0.079 0-0.026 0.005-0.047 0.010-0.068l0.047-0.189h0.052c0.005 0.052 0.042 0.084 0.11 0.084h0.341c0.1 0 0.173-0.021 0.22-0.052 0.031-0.031 0.063-0.079 0.084-0.157 0-0.026 0.005-0.052 0.005-0.079 0-0.037-0.005-0.068-0.031-0.089-0.026-0.026-0.063-0.052-0.121-0.068l-0.204-0.079c-0.079-0.037-0.142-0.079-0.189-0.131-0.042-0.052-0.063-0.121-0.063-0.199 0-0.042 0.005-0.089 0.021-0.152 0.031-0.131 0.094-0.231 0.173-0.283 0.084-0.063 0.194-0.094 0.341-0.094z"></path>
<path fill="#00a6ff" d="M12.43 9.772l0.362-1.353v-0.042c0-0.042-0.021-0.063-0.063-0.068l0.005-0.047h0.315c0.068 0 0.094 0.037 0.094 0.1 0 0.016-0.005 0.031-0.005 0.047l-0.351 1.358v0.042c0 0.042 0.021 0.063 0.063 0.068l-0.010 0.047h-0.309c-0.068 0-0.105-0.037-0.105-0.1v-0.052z"></path>
<path fill="#00a6ff" d="M14.039 9.929h-0.377c-0.157 0-0.273-0.037-0.341-0.121-0.058-0.068-0.094-0.173-0.094-0.309 0-0.058 0.005-0.131 0.021-0.204 0.010-0.073 0.031-0.152 0.052-0.241 0.079-0.299 0.178-0.509 0.299-0.629 0.105-0.105 0.267-0.163 0.461-0.163h0.519l-0.037 0.136c-0.010 0.052-0.031 0.084-0.052 0.1-0.026 0.021-0.063 0.031-0.121 0.031h-0.225c-0.147 0-0.252 0.037-0.315 0.115-0.047 0.068-0.105 0.199-0.152 0.398-0.052 0.199-0.073 0.336-0.073 0.414 0 0.073 0.016 0.131 0.052 0.152 0.042 0.031 0.105 0.047 0.199 0.047h0.278c0.063 0 0.105-0.005 0.121-0.005 0.026-0.010 0.058-0.037 0.089-0.068h0.047l-0.042 0.168c-0.021 0.068-0.052 0.11-0.105 0.142-0.058 0.031-0.121 0.037-0.204 0.037z"></path>
<path fill="#00a6ff" d="M7.25 8.262h0.556l-0.031 0.136c-0.010 0.052-0.031 0.084-0.052 0.1-0.026 0.021-0.068 0.031-0.121 0.031h-0.299c-0.068 0-0.121 0.010-0.152 0.031-0.037 0.016-0.063 0.058-0.073 0.105l-0.010 0.058c0 0.026 0.010 0.047 0.021 0.073 0.016 0.016 0.047 0.037 0.089 0.052l0.252 0.1c0.089 0.031 0.152 0.073 0.194 0.121 0.047 0.058 0.068 0.126 0.068 0.215 0 0.031 0 0.063-0.005 0.084-0.005 0.016-0.010 0.042-0.016 0.079-0.042 0.163-0.11 0.288-0.189 0.362-0.084 0.073-0.215 0.115-0.377 0.115h-0.488c-0.052 0-0.094-0.010-0.121-0.026-0.031-0.016-0.042-0.047-0.042-0.079 0-0.026 0.005-0.047 0.010-0.068l0.047-0.189h0.052c0.005 0.052 0.042 0.084 0.11 0.084h0.341c0.1 0 0.173-0.021 0.22-0.052 0.031-0.031 0.063-0.079 0.084-0.157 0-0.026 0.005-0.052 0.005-0.079 0-0.037-0.005-0.068-0.031-0.089-0.026-0.026-0.063-0.052-0.121-0.068l-0.204-0.079c-0.079-0.037-0.142-0.079-0.189-0.131-0.042-0.052-0.063-0.121-0.063-0.199 0-0.042 0.005-0.089 0.021-0.152 0.031-0.131 0.094-0.231 0.173-0.283 0.084-0.063 0.194-0.094 0.341-0.094v0 0z"></path>
<path fill="#00a6ff" d="M8.22 8.262h1.059l-0.026 0.136c-0.010 0.052-0.031 0.084-0.052 0.1-0.021 0.021-0.063 0.031-0.115 0.031h-0.488l-0.094 0.357h0.556l-0.031 0.142c-0.010 0.047-0.026 0.084-0.047 0.1-0.026 0.016-0.063 0.026-0.121 0.026h-0.273c-0.052 0-0.089 0.010-0.121 0.026-0.021 0.016-0.042 0.047-0.058 0.094l-0.105 0.393h0.503c0.052 0 0.094-0.005 0.115-0.010 0.016-0.010 0.042-0.031 0.063-0.063h0.047l-0.058 0.22c-0.021 0.079-0.073 0.115-0.163 0.115h-0.792c-0.068 0-0.105-0.037-0.105-0.1 0-0.021 0-0.037 0.005-0.052l0.351-1.353c0-0.010 0.005-0.016 0.005-0.026 0-0.005 0-0.010 0-0.016 0-0.042-0.021-0.063-0.068-0.068l0.010-0.052z"></path>
<path fill="#00a6ff" d="M9.997 8.53l-0.115 0.461h0.262c0.094 0 0.163-0.016 0.204-0.047 0.042-0.037 0.073-0.094 0.094-0.178 0.005-0.031 0.010-0.042 0.010-0.047s0-0.021 0-0.042c0-0.047-0.021-0.089-0.058-0.115-0.031-0.021-0.089-0.031-0.168-0.031h-0.231zM9.966 9.258h-0.152l-0.136 0.514v0.042c0 0.037 0.021 0.063 0.063 0.068l-0.005 0.047h-0.315c-0.068 0-0.1-0.037-0.1-0.1v-0.052l0.351-1.353c0-0.010 0.005-0.016 0.005-0.026 0-0.005 0-0.010 0-0.016 0-0.042-0.016-0.063-0.063-0.068l0.010-0.047h0.718c0.157 0 0.283 0.042 0.362 0.11 0.073 0.068 0.105 0.157 0.105 0.262 0 0.052-0.005 0.1-0.016 0.142-0.047 0.157-0.1 0.267-0.178 0.341-0.063 0.052-0.163 0.089-0.299 0.105l0.126 0.367c0.010 0.026 0.026 0.042 0.031 0.052 0.016 0.005 0.042 0.010 0.079 0.010h0.079l-0.037 0.136c-0.016 0.058-0.031 0.089-0.052 0.105-0.026 0.016-0.068 0.026-0.126 0.026h-0.094c-0.052 0-0.089-0.005-0.105-0.021-0.021-0.016-0.042-0.052-0.068-0.115l-0.184-0.53z"></path>
<path fill="#00a6ff" d="M11.014 8.262h0.315c0.068 0 0.105 0.031 0.105 0.094l0.1 1.159 0.577-1.096c0.010-0.021 0.021-0.042 0.021-0.058 0-0.031-0.021-0.047-0.058-0.052l0.010-0.047h0.32c0.047 0 0.073 0.016 0.073 0.047 0 0.016-0.005 0.037-0.021 0.058l-0.823 1.557h-0.288c-0.073 0-0.11-0.031-0.11-0.089l-0.142-1.447c-0.005-0.058-0.037-0.079-0.094-0.079l0.016-0.047z"></path>
<path fill="#00a6ff" d="M12.43 9.772l0.362-1.353v-0.042c0-0.042-0.021-0.063-0.063-0.068l0.005-0.047h0.315c0.068 0 0.094 0.037 0.094 0.1 0 0.016-0.005 0.031-0.005 0.047l-0.351 1.358v0.042c0 0.042 0.021 0.063 0.063 0.068l-0.010 0.047h-0.309c-0.068 0-0.105-0.037-0.105-0.1v-0.052h0.005z"></path>
<path fill="#00a6ff" d="M14.039 9.929h-0.377c-0.157 0-0.273-0.037-0.341-0.121-0.058-0.068-0.094-0.173-0.094-0.309 0-0.058 0.005-0.131 0.021-0.204 0.010-0.073 0.031-0.152 0.052-0.241 0.079-0.299 0.178-0.509 0.299-0.629 0.105-0.105 0.267-0.163 0.461-0.163h0.519l-0.037 0.136c-0.010 0.052-0.031 0.084-0.052 0.1-0.026 0.021-0.063 0.031-0.121 0.031h-0.225c-0.147 0-0.252 0.037-0.315 0.115-0.047 0.068-0.105 0.199-0.152 0.398-0.052 0.199-0.073 0.336-0.073 0.414 0 0.073 0.016 0.131 0.052 0.152 0.042 0.031 0.105 0.047 0.199 0.047h0.278c0.063 0 0.105-0.005 0.121-0.005 0.026-0.010 0.058-0.037 0.089-0.068h0.047l-0.042 0.168c-0.021 0.068-0.052 0.11-0.105 0.142-0.058 0.031-0.121 0.037-0.204 0.037v0 0z"></path>
<path fill="#00a6ff" d="M14.941 8.262h1.059l-0.031 0.136c-0.005 0.052-0.026 0.084-0.047 0.1-0.026 0.021-0.063 0.031-0.121 0.031h-0.482l-0.094 0.357h0.556l-0.031 0.142c-0.010 0.047-0.026 0.084-0.047 0.1-0.026 0.016-0.063 0.026-0.121 0.026h-0.273c-0.052 0-0.089 0.010-0.121 0.026s-0.047 0.047-0.058 0.094l-0.105 0.393h0.503c0.052 0 0.094-0.005 0.115-0.010 0.016-0.010 0.042-0.031 0.063-0.063h0.047l-0.058 0.22c-0.021 0.079-0.073 0.115-0.163 0.115h-0.797c-0.068 0-0.105-0.037-0.105-0.1 0-0.021 0-0.037 0.005-0.052l0.351-1.353c0-0.010 0.005-0.016 0.005-0.026 0-0.005 0-0.010 0-0.016 0-0.042-0.021-0.063-0.068-0.068l0.016-0.052z"></path>
<path fill="#2f2d2e" d="M6.48 10.752v-0.44h0.058v0.184h0.231v-0.184h0.063v0.44h-0.063v-0.21h-0.231v0.21h-0.058z"></path>
<path fill="#2f2d2e" d="M6.873 10.752l0.173-0.44h0.063l0.184 0.44h-0.068l-0.052-0.131h-0.183l-0.052 0.131h-0.063zM7.004 10.574h0.152l-0.042-0.126c-0.016-0.037-0.026-0.068-0.031-0.094-0.005 0.031-0.010 0.058-0.021 0.084l-0.058 0.136z"></path>
<path fill="#2f2d2e" d="M7.512 10.312h0.058v0.393h0.152v-0.393h0.058v0.393h0.147v-0.393h0.058v0.44h-0.472v-0.44z"></path>
<path fill="#2f2d2e" d="M8.031 10.752l0.173-0.44h0.063l0.184 0.44h-0.073l-0.052-0.131h-0.189l-0.047 0.131h-0.058zM8.157 10.574h0.152l-0.042-0.126c-0.016-0.037-0.026-0.068-0.031-0.094-0.005 0.031-0.016 0.058-0.026 0.084l-0.052 0.136z"></path>
<path fill="#2f2d2e" d="M8.493 10.312h0.283v0.052h-0.225v0.393h-0.058v-0.446z"></path>
<path fill="#2f2d2e" d="M9.001 10.752v-0.44h0.168c0.031 0 0.058 0.005 0.084 0.016 0.016 0.005 0.031 0.021 0.047 0.037 0.010 0.021 0.021 0.042 0.021 0.058 0 0.021-0.005 0.037-0.016 0.058-0.010 0.016-0.026 0.026-0.047 0.037 0.026 0.010 0.052 0.021 0.068 0.042 0.010 0.016 0.016 0.037 0.016 0.068 0 0.021-0.005 0.037-0.010 0.058-0.010 0.021-0.021 0.031-0.037 0.042s-0.031 0.010-0.047 0.016c-0.021 0.005-0.047 0.010-0.073 0.010h-0.173zM9.054 10.495h0.1c0.026 0 0.042 0 0.052 0 0.016-0.005 0.026-0.010 0.037-0.021s0.010-0.026 0.010-0.042c0-0.016-0.005-0.026-0.010-0.037s-0.016-0.021-0.031-0.026c-0.016-0.005-0.031-0.005-0.068-0.005h-0.089v0.131zM9.054 10.705h0.11c0.016 0 0.031 0 0.037 0 0.016-0.005 0.026-0.005 0.037-0.010s0.016-0.016 0.021-0.026c0.005-0.010 0.010-0.021 0.010-0.037s-0.005-0.031-0.010-0.047c-0.010-0.010-0.021-0.016-0.037-0.021s-0.037-0.005-0.063-0.005h-0.105v0.147z"></path>
<path fill="#2f2d2e" d="M9.415 10.312h0.346v0.44h-0.058v-0.393h-0.231v0.393h-0.058v-0.44z"></path>
<path fill="#2f2d2e" d="M9.861 10.752v-0.44h0.32v0.052h-0.262v0.136h0.246v0.058h-0.246v0.152h0.273v0.052h-0.33z"></path>
<path fill="#2f2d2e" d="M10.275 10.752v-0.44h0.168c0.026 0 0.052 0 0.068 0.005 0.021 0.005 0.042 0.010 0.052 0.016 0.016 0.010 0.026 0.026 0.037 0.047s0.016 0.037 0.016 0.058c0 0.042-0.010 0.068-0.037 0.1-0.026 0.026-0.068 0.037-0.126 0.037h-0.115v0.184l-0.063-0.005zM10.328 10.522h0.115c0.037 0 0.063-0.005 0.079-0.021 0.016-0.010 0.026-0.031 0.026-0.058 0-0.021-0.005-0.031-0.016-0.047s-0.021-0.021-0.042-0.026c-0.010-0.005-0.026-0.005-0.052-0.005h-0.115l0.005 0.157z"></path>
<path fill="#2f2d2e" d="M10.689 10.752v-0.44h0.32v0.052h-0.262v0.136h0.246v0.058h-0.246v0.152h0.273v0.052h-0.33z"></path>
<path fill="#2f2d2e" d="M11.14 10.312h0.273v0.393h0.037v0.157h-0.052v-0.11h-0.294v0.105h-0.052v-0.152h0.037c0.031-0.052 0.052-0.163 0.052-0.325v-0.068zM11.355 10.364h-0.157v0.026c0 0.037 0 0.089-0.005 0.152s-0.021 0.115-0.042 0.163h0.21v-0.341z"></path>
<path fill="#2f2d2e" d="M11.523 10.312h0.052v0.346l0.236-0.346h0.058v0.44h-0.052v-0.346l-0.236 0.346h-0.058v-0.44z"></path>
<path fill="#2f2d2e" d="M12.12 10.537c0-0.073 0.021-0.131 0.058-0.173 0.042-0.037 0.089-0.063 0.152-0.063 0.042 0 0.079 0.010 0.11 0.031 0.037 0.016 0.058 0.047 0.073 0.079 0.016 0.037 0.026 0.079 0.026 0.121s-0.010 0.084-0.031 0.126c-0.021 0.031-0.042 0.063-0.079 0.079-0.031 0.016-0.068 0.026-0.105 0.026-0.042 0-0.079-0.010-0.115-0.026-0.037-0.021-0.058-0.052-0.073-0.084-0.010-0.037-0.016-0.079-0.016-0.115v0 0zM12.178 10.543c0 0.052 0.016 0.094 0.047 0.126 0.026 0.031 0.063 0.047 0.105 0.047 0.047 0 0.079-0.016 0.11-0.047 0.031-0.026 0.047-0.073 0.047-0.131 0-0.037-0.005-0.068-0.021-0.094s-0.031-0.047-0.058-0.063c-0.021-0.016-0.047-0.021-0.079-0.021-0.037 0-0.079 0.016-0.105 0.047-0.031 0.016-0.047 0.068-0.047 0.136z"></path>
<path fill="#2f2d2e" d="M12.875 10.312v0.194c0.026 0 0.047-0.005 0.058-0.010 0.010-0.010 0.026-0.037 0.042-0.079 0.010-0.026 0.021-0.047 0.026-0.063 0.010-0.010 0.021-0.021 0.037-0.026 0.016-0.010 0.026-0.016 0.047-0.016s0.031 0 0.037 0v0.047c0 0-0.005 0-0.010 0s-0.010 0-0.010 0c-0.021 0-0.037 0.005-0.042 0.016s-0.016 0.031-0.031 0.058c-0.016 0.031-0.026 0.058-0.037 0.063-0.010 0.010-0.021 0.021-0.037 0.031 0.026 0.010 0.058 0.037 0.084 0.079l0.094 0.147h-0.079l-0.073-0.115c-0.016-0.037-0.031-0.058-0.047-0.068-0.016-0.016-0.037-0.021-0.058-0.021v0.204h-0.063v-0.204c-0.016 0-0.031 0.005-0.047 0.016s-0.031 0.026-0.052 0.063l-0.005 0.005-0.073 0.115h-0.073l0.089-0.147c0.031-0.042 0.058-0.068 0.084-0.079-0.010-0.005-0.026-0.016-0.037-0.026-0.010-0.005-0.021-0.031-0.037-0.068-0.010-0.026-0.021-0.047-0.031-0.058s-0.026-0.010-0.042-0.010h-0.021v-0.047c0 0 0.010 0 0.031 0s0.037 0.005 0.052 0.010c0.010 0.010 0.021 0.016 0.031 0.026s0.021 0.037 0.031 0.063c0.016 0.042 0.026 0.068 0.037 0.079 0.010 0.005 0.031 0.010 0.063 0.010v-0.194l0.063 0.005z"></path>
<path fill="#2f2d2e" d="M13.18 10.312h0.052v0.346l0.236-0.346h0.063v0.44h-0.058v-0.346l-0.236 0.346h-0.058v-0.44z"></path>
<path fill="#2f2d2e" d="M13.667 10.312h0.273v0.393h0.037v0.157h-0.052v-0.11h-0.299v0.105h-0.052v-0.152h0.037c0.031-0.052 0.052-0.163 0.052-0.325v-0.068h0.005zM13.877 10.364h-0.152v0.026c0 0.037-0.005 0.089-0.010 0.152s-0.016 0.115-0.037 0.163h0.204v-0.341z"></path>
<path fill="#2f2d2e" d="M13.997 10.752l0.173-0.44h0.063l0.184 0.44h-0.068l-0.052-0.131h-0.189l-0.052 0.131h-0.058zM14.123 10.574h0.152l-0.042-0.126c-0.016-0.037-0.026-0.068-0.031-0.094-0.005 0.031-0.016 0.058-0.021 0.084l-0.058 0.136z"></path>
<path fill="#2f2d2e" d="M14.459 10.752v-0.44h0.058v0.184h0.236v-0.184h0.058v0.44h-0.058v-0.21h-0.236v0.21h-0.058z"></path>
<path fill="#2f2d2e" d="M14.91 10.312h0.052v0.346l0.236-0.346h0.058v0.44h-0.052v-0.346l-0.236 0.346h-0.058v-0.44z"></path>
<path fill="#2f2d2e" d="M15.706 10.752v-0.44h-0.199c-0.037 0-0.068 0.005-0.089 0.010-0.021 0.010-0.031 0.016-0.047 0.042-0.016 0.021-0.021 0.047-0.021 0.068 0 0.031 0.010 0.063 0.031 0.079 0.016 0.021 0.052 0.037 0.094 0.042-0.016 0.010-0.031 0.016-0.037 0.021-0.016 0.010-0.037 0.031-0.047 0.058l-0.079 0.121h0.073l0.058-0.094c0.016-0.021 0.031-0.047 0.042-0.058 0.010-0.016 0.021-0.026 0.031-0.026 0.010-0.005 0.021-0.010 0.026-0.010s0.016 0 0.031 0h0.068v0.194l0.063-0.005zM15.643 10.506h-0.126c-0.026 0-0.047-0.005-0.063-0.010-0.016 0-0.026-0.010-0.037-0.021s-0.010-0.026-0.010-0.042c0-0.021 0.010-0.037 0.026-0.047 0.016-0.016 0.042-0.021 0.073-0.021h0.142v0.142z"></path>
</svg>
