<svg version="1.1" xmlns="http://www.w3.org/2000/svg" width="16" height="16" viewBox="0 0 16 16">
<title>dostavista</title>
<path fill="#ff3e80" d="M0.803 6.849c0.745 0 1.18 0.477 1.18 1.137 0 0.666-0.429 1.139-1.18 1.139h-0.802v-2.276h0.803zM0.48 7.248v1.479h0.322c0.451 0 0.7-0.263 0.7-0.741 0-0.471-0.254-0.738-0.7-0.738h-0.322zM3.142 7.461c0.584 0 0.912 0.372 0.912 0.851 0 0.472-0.312 0.851-0.912 0.851-0.595 0-0.912-0.387-0.912-0.851s0.317-0.851 0.912-0.851zM3.142 7.831c-0.269 0-0.446 0.178-0.446 0.481s0.177 0.481 0.446 0.481c0.275 0 0.446-0.171 0.446-0.481 0-0.313-0.177-0.481-0.446-0.481zM5.015 7.464c-0.38 0.002-0.743 0.161-0.743 0.502 0 0.367 0.269 0.421 0.679 0.489 0.15 0.027 0.284 0.040 0.284 0.176 0 0.125-0.124 0.173-0.294 0.172-0.236-0.002-0.48-0.094-0.586-0.177l-0.13 0.296c0.163 0.141 0.45 0.221 0.717 0.221 0.369 0.006 0.749-0.148 0.749-0.496 0-0.43-0.335-0.461-0.746-0.532-0.117-0.021-0.212-0.046-0.212-0.152 0-0.11 0.129-0.159 0.284-0.158 0.159 0.002 0.365 0.051 0.49 0.112l0.127-0.298c-0.165-0.103-0.394-0.157-0.617-0.156zM6.522 7.069h-0.466v0.43h-0.252v0.347h0.252v0.612c0 0.262 0.095 0.439 0.251 0.548 0.153 0.108 0.365 0.148 0.607 0.14v-0.349c-0.122-0.005-0.222-0.030-0.291-0.087-0.065-0.054-0.102-0.135-0.102-0.253v-0.612h0.364v-0.347h-0.364v-0.43zM7.918 7.461c0.403-0 0.772 0.192 0.772 0.625v1.040h-0.411l-0.020-0.201c-0.129 0.151-0.306 0.231-0.496 0.242-0.328 0.022-0.664-0.178-0.664-0.553s0.329-0.542 0.668-0.553c0.161-0.004 0.326 0.028 0.456 0.089l-0-0.074c-0.006-0.204-0.198-0.29-0.405-0.286-0.181 0.004-0.383 0.067-0.508 0.135l-0.109-0.279c0.209-0.114 0.471-0.184 0.717-0.184zM7.878 8.347c-0.182 0.001-0.344 0.072-0.344 0.239 0 0.164 0.165 0.245 0.344 0.236 0.129-0.006 0.251-0.050 0.346-0.161v-0.226c-0.092-0.056-0.221-0.088-0.347-0.087zM10.595 7.5h-0.474l-0.421 1.144-0.421-1.144h-0.474l0.657 1.626h0.477l0.657-1.626zM11.057 6.832c-0.139 0-0.251 0.103-0.251 0.229s0.112 0.229 0.251 0.229 0.251-0.103 0.251-0.229c0-0.127-0.112-0.229-0.251-0.229zM11.29 7.5h-0.466v1.626h0.466v-1.626zM12.325 7.464c-0.38 0.002-0.743 0.161-0.743 0.502 0 0.367 0.269 0.421 0.679 0.489 0.15 0.027 0.284 0.040 0.284 0.176 0 0.125-0.124 0.173-0.294 0.172-0.236-0.002-0.48-0.094-0.586-0.177l-0.13 0.296c0.163 0.141 0.45 0.221 0.717 0.221 0.369 0.006 0.749-0.148 0.749-0.496 0-0.43-0.335-0.461-0.746-0.532-0.117-0.021-0.212-0.046-0.212-0.152 0-0.11 0.129-0.159 0.284-0.158 0.159 0.002 0.365 0.051 0.49 0.112l0.127-0.298c-0.165-0.103-0.394-0.157-0.617-0.156zM13.832 7.069h-0.466v0.43h-0.252v0.347h0.252v0.612c0 0.262 0.095 0.439 0.251 0.548 0.153 0.108 0.365 0.148 0.607 0.14v-0.349c-0.122-0.005-0.222-0.030-0.291-0.087-0.065-0.054-0.102-0.135-0.102-0.253v-0.612h0.364v-0.347h-0.364v-0.43zM15.228 7.461c0.403-0 0.772 0.192 0.772 0.625v1.039h-0.411l-0.020-0.201c-0.129 0.151-0.306 0.231-0.496 0.242-0.328 0.022-0.664-0.178-0.664-0.553s0.329-0.542 0.668-0.553c0.161-0.004 0.326 0.028 0.456 0.089l-0-0.074c-0.006-0.204-0.198-0.29-0.405-0.286-0.181 0.004-0.383 0.067-0.508 0.135l-0.109-0.279c0.209-0.114 0.471-0.184 0.717-0.184zM15.188 8.347c-0.182 0.001-0.344 0.072-0.344 0.239 0 0.164 0.165 0.245 0.345 0.236 0.128-0.006 0.251-0.050 0.346-0.161v-0.226c-0.092-0.056-0.221-0.088-0.347-0.087z"></path>
</svg>
