<svg version="1.1" xmlns="http://www.w3.org/2000/svg" width="16" height="16" viewBox="0 0 16 16">
<title>dpd</title>
<path fill="#e11836" d="M0.225 10.361c1.125 0.66 2.246 1.329 3.371 1.989 0.127 0.093 0.291 0.073 0.415-0.013 1.122-0.665 2.246-1.326 3.368-1.99 0.131-0.067 0.214-0.203 0.197-0.352-0.003-1.266 0.007-2.532-0.005-3.797-0.796 0.418-1.55 0.916-2.342 1.34-0.282-0.020-0.459-0.302-0.351-0.568 0.814-0.519 1.678-0.962 2.495-1.477-1.135-0.618-2.267-1.241-3.403-1.856-0.24-0.149-0.475 0.077-0.685 0.176-1.010 0.577-2.086 1.089-3.055 1.705 1.247 0.725 2.492 1.452 3.74 2.175 0.082 0.046 0.185 0.105 0.164 0.217-0.007 1.096 0.017 2.194-0.011 3.289-0.154 0.24-0.478 0.24-0.658 0.027-0.033-1.003 0.005-2.009-0.017-3.012-1.117-0.716-2.296-1.356-3.444-2.030-0.004 1.271 0 2.542-0.002 3.813-0.016 0.159 0.085 0.298 0.224 0.364z"></path>
<path fill="#404041" d="M8.615 6.774c-0.693 0.407-0.783 1.501-0.225 2.055 0.563 0.507 1.396 0.387 2.079 0.254 0.029-1.187 0.008-2.377 0.011-3.566-0.22-0.013-0.44-0.011-0.66-0.001-0.014 0.376 0.002 0.753-0.006 1.13-0.396-0.1-0.839-0.083-1.198 0.129zM9.813 8.584c-0.333 0.087-0.757 0.053-0.973-0.248-0.172-0.269-0.182-0.651 0.004-0.915 0.223-0.287 0.661-0.305 0.969-0.159 0.003 0.441 0.003 0.882 0 1.323z"></path>
<path fill="#404041" d="M13.874 6.979c-0.525 0.579-0.432 1.679 0.303 2.044 0.564 0.271 1.217 0.176 1.809 0.060 0.026-1.188 0.007-2.378 0.010-3.566-0.221-0.013-0.443-0.011-0.663-0.001-0.014 0.376 0.003 0.752-0.005 1.128-0.497-0.127-1.089-0.057-1.454 0.335zM14.395 8.387c-0.193-0.232-0.211-0.579-0.105-0.852 0.171-0.385 0.696-0.445 1.038-0.273 0.002 0.44 0.002 0.88 0 1.32-0.313 0.084-0.703 0.059-0.933-0.195z"></path>
<path fill="#404041" d="M11.928 8.619c-0.049 0.183-0.015 0.386-0.017 0.577 0.479 0.020 1.013-0.171 1.245-0.617 0.3-0.576 0.221-1.421-0.372-1.781-0.584-0.336-1.315-0.228-1.918-0.002-0.006 1.118-0.007 2.236 0.001 3.354 0.223 0.005 0.446 0.004 0.668 0 0.013-0.966-0.006-1.933 0.009-2.899 0.385-0.15 0.973-0.061 1.074 0.408 0.149 0.458-0.194 0.974-0.69 0.959z"></path>
</svg>
