<svg version="1.1" xmlns="http://www.w3.org/2000/svg" width="16" height="16" viewBox="0 0 16 16">
<title>easyway</title>
<path fill="#252069" d="M0 9.912h1.481v-2.715h1.398v2.715c0 0 0.535 0 1.481 0v-3.825h-4.36v3.825z"></path>
<path fill="#252069" d="M4.812 6.087c0 0 0.123 0.617 0.164 1.028h2.633v0.37h-1.686v1.028h1.686v0.37h-2.632l-0.164 1.028c0 0 0.411 0.082 0.823 0.082h2.221c0.37 0 0.699-0.041 0.781-0.082 0.247-0.206 0.37-1.604 0.37-1.892s-0.123-1.686-0.329-1.851c-0.082-0.082-0.37-0.123-0.741-0.164h-2.303c-0.411-0.001-0.823 0.082-0.823 0.082z"></path>
<path fill="#252069" d="M9.46 9.912h1.439v-1.399c0.576 0 0.452-0.041 0.699 0.288l0.823 1.111h1.727l-1.563-2.056c0.247-0.329 1.48-1.769 1.48-1.769h-1.645c-0.164 0.247-0.329 0.453-0.535 0.699-0.535 0.658-0.37 0.617-0.987 0.617v-1.316h-1.439v3.825z"></path>
<path fill="#e4003c" d="M14.602 6.087h1.398v1.234h-1.398z"></path>
<path fill="#e4003c" d="M14.602 8.761h1.398v1.234h-1.398z"></path>
</svg>
