<svg version="1.1" xmlns="http://www.w3.org/2000/svg" width="16" height="16" viewBox="0 0 16 16">
<title>gett</title>
<path fill="#000" d="M3.305 10.208c-0.005 0-0.009 0-0.014 0s-0.009 0-0.014 0h-1.101c-0.178 0-0.322 0.144-0.322 0.322s0.144 0.322 0.322 0.322h0.453c-0.023 0.068-0.054 0.127-0.092 0.18l0.001-0.002c-0.126 0.184-0.427 0.389-0.701 0.389-0.706 0-1.032-0.571-1.032-1.273s0.465-1.247 1.171-1.247c0.228 0 0.401 0.037 0.574 0.136 0.062 0.036 0.125 0.077 0.188 0.117l0.194 0.15c0.054 0.042 0.122 0.067 0.196 0.067 0.103 0 0.196-0.049 0.255-0.124l0.001-0.001c0.097-0.126 0.071-0.302-0.021-0.416-0.093-0.111-0.199-0.207-0.317-0.287l-0.005-0.003c-0.305-0.208-0.683-0.332-1.088-0.332-1.074 0-1.945 0.868-1.951 1.941v0.001c0 1.072 0.638 1.941 1.717 1.941 0.432 0 0.953-0.168 1.266-0.618v0.299c0 0.178 0.144 0.322 0.322 0.322s0.322-0.144 0.322-0.322v0-1.237c0 0 0 0 0 0 0-0.178-0.144-0.322-0.322-0.323h-0z"></path>
<path fill="#000" d="M6.070 11.279c-0.217 0.103-0.472 0.164-0.741 0.165h-0.001c-0.605 0-0.668-0.513-0.669-0.587s0.003-0.070 0.003-0.070h1.465c0.447 0 0.403-0.44 0.403-0.44 0-0.563-0.341-1.264-1.275-1.264s-1.247 0.762-1.297 1.053-0.202 1.259 0.588 1.739 1.59 0 1.59 0c0.246-0.116 0.429-0.343 0.302-0.538-0.104-0.158-0.318-0.081-0.369-0.059zM4.657 10.25c0-0.336 0.269-0.571 0.599-0.571s0.598 0.238 0.598 0.571c0 0 0 0.001 0 0.001 0 0.005-0.003 0.009-0.007 0.011h-1.181c-0 0-0 0-0.001 0-0.005 0-0.009-0.004-0.009-0.009 0-0.001 0-0.002 0-0.003v0z"></path>
<path fill="#000" d="M8.415 11.606c-0.026-0.043-0.063-0.078-0.107-0.1l-0.001-0.001c-0.029-0.014-0.063-0.025-0.098-0.031l-0.002-0c-0.034-0.006-0.076-0.010-0.123-0.014-0.043-0-0.083-0.010-0.119-0.027l0.002 0.001c-0.029-0.014-0.054-0.033-0.073-0.057l-0-0c-0.018-0.023-0.031-0.050-0.038-0.080l-0-0.001c-0.007-0.029-0.011-0.062-0.011-0.097 0-0.001 0-0.002 0-0.003v0-1.484h0.136c0.158-0 0.285-0.128 0.286-0.286v-0.011c-0-0.158-0.128-0.285-0.286-0.286h-0.136v-0.548c0-0.205-0.166-0.371-0.371-0.371s-0.371 0.166-0.371 0.371v0 0.548h-0.137c-0.158 0.001-0.285 0.128-0.286 0.286v0.011c0 0.158 0.128 0.285 0.286 0.286h0.134v1.523c0 0.001 0 0.002 0 0.003 0 0.112 0.017 0.22 0.049 0.322l-0.002-0.008c0.065 0.212 0.218 0.381 0.416 0.465l0.005 0.002c0.109 0.046 0.236 0.072 0.369 0.072 0.009 0 0.019-0 0.028-0h0.039c0.004 0 0.009 0 0.014 0 0.060 0 0.119-0.005 0.176-0.014l-0.006 0.001c0.046-0.007 0.088-0.021 0.126-0.040l-0.002 0.001c0.045-0.024 0.081-0.058 0.107-0.1l0.001-0.001c0.026-0.044 0.042-0.098 0.042-0.155 0-0.004-0-0.009-0-0.013v0.001c0-0.002 0-0.004 0-0.006 0-0.058-0.016-0.112-0.043-0.159l0.001 0.001z"></path>
<path fill="#000" d="M10.217 11.606c-0.026-0.043-0.063-0.078-0.107-0.1l-0.001-0.001c-0.029-0.014-0.063-0.025-0.098-0.031l-0.002-0c-0.034-0.006-0.076-0.010-0.123-0.014-0.043-0-0.083-0.010-0.119-0.027l0.002 0.001c-0.057-0.026-0.098-0.077-0.112-0.138l-0-0.001c-0.007-0.029-0.011-0.062-0.011-0.097 0-0.001 0-0.002 0-0.003v0-1.484h0.136c0.158-0 0.285-0.128 0.286-0.286v-0.011c-0.001-0.158-0.128-0.285-0.286-0.286h-0.138v-0.548c0-0.205-0.166-0.371-0.371-0.371s-0.371 0.166-0.371 0.371v0 0.548h-0.136c-0.158 0-0.285 0.128-0.286 0.286v0.011c0.001 0.158 0.128 0.285 0.286 0.286h0.134v1.523c0 0.001 0 0.002 0 0.003 0 0.112 0.017 0.22 0.049 0.322l-0.002-0.008c0.065 0.212 0.218 0.381 0.416 0.465l0.005 0.002c0.109 0.046 0.236 0.072 0.369 0.072 0.009 0 0.019-0 0.028-0h0.039c0.004 0 0.009 0 0.014 0 0.060 0 0.119-0.005 0.176-0.014l-0.006 0.001c0.046-0.007 0.088-0.021 0.126-0.040l-0.002 0.001c0.045-0.024 0.081-0.058 0.107-0.1l0.001-0.001c0.026-0.044 0.042-0.098 0.042-0.155 0-0.004-0-0.009-0-0.013v0.001c0-0.002 0-0.005 0-0.007 0-0.057-0.015-0.111-0.042-0.157l0.001 0.002z"></path>
<path fill="#fbb739" d="M11.77 7.295h3.641c0.325 0 0.589 0.264 0.589 0.589v3.602c0 0.325-0.264 0.589-0.589 0.589h-3.641c-0.325 0-0.589-0.264-0.589-0.589v-3.602c0-0.325 0.264-0.589 0.589-0.589z"></path>
<path fill="#000" d="M12.557 8.627l0.057-0.012 0.010-0.052h0.021c0.039 0.324 0.067 0.533 0.067 0.726 0.002 0.935-0.202 1.824-0.212 2.787h0.914c0.084-0.231 0.147-0.518 0.254-0.726 0.089 0.211 0.157 0.477 0.208 0.726h0.956c-0.047-0.661-0.067-1.114-0.185-1.939 0.004 0 0.008 0 0.012 0 0.054 0 0.105-0.011 0.152-0.031l-0.002 0.001c-0.174-0.565-0.24-2.16-0.060-2.994 0.035-0.095 0.202-0.517 0.202-0.808 0 0 0.029-0.108 0.061-0.232v0c0.056-0.132 0.117-0.303 0.168-0.478l0.010-0.038c0.038-0.13 0.075-0.295 0.103-0.464l0.004-0.027 0.065-0.195c0.032-0.033 0.062-0.068 0.088-0.106l0.002-0.003c0.024-0.035 0.047-0.076 0.067-0.118l0.002-0.006c0.016-0.020 0.035-0.036 0.056-0.049l0.001-0.001c0.021-0.012 0.044-0.022 0.069-0.029l0.002-0.001 0.199-0.036s0.065-0.011 0.054-0.046-0.103-0.031-0.103-0.031-0.222 0.025-0.233 0.012 0.249-0.202 0.249-0.202 0.069-0.057 0.045-0.097-0.106 0.021-0.106 0.021-0.253 0.173-0.273 0.174 0.183-0.279 0.183-0.279 0.061-0.086 0.029-0.122-0.093 0.041-0.093 0.041-0.219 0.267-0.23 0.279-0.030-0.003-0.042-0.018c-0.004-0.007-0.006-0.016-0.006-0.025 0-0.005 0.001-0.010 0.002-0.014l-0 0 0.034-0.23c0-0.001 0-0.001 0-0.002 0-0.030-0.018-0.056-0.043-0.068l-0-0c-0.046-0.016-0.066 0.043-0.066 0.043l-0.089 0.338c-0.026 0.041-0.062 0.073-0.105 0.093l-0.002 0.001c-0.009 0.002-0.020 0.003-0.032 0.003-0.029 0-0.057-0.007-0.081-0.020l0.001 0c-0.027-0.034-0.058-0.063-0.091-0.088l-0.001-0.001c-0.021-0.013-0.047-0.021-0.074-0.024l-0.001-0s-0.079-0.006-0.112 0.036c-0.015 0.019 0.041 0.044 0.041 0.044 0.038 0.021 0.070 0.046 0.098 0.075l0 0c0.015 0.020 0.025 0.045 0.027 0.072v0s-0.008 0.027 0.030 0.087c0.034 0.047 0.067 0.088 0.103 0.126l-0.001-0.001c0.013 0.021 0.025 0.046 0.033 0.072l0.001 0.002-0.003 0.092c-0.003 0.011-0.006 0.020-0.010 0.028l0-0.001-0.166 0.437s-0.067 0.131-0.132 0.286c-0.074 0.171-0.152 0.372-0.187 0.439l-0.003 0.014-0.004 0.006s-0.052 0.077-0.101 0.168-0.189 0.183-0.195 0.191-0.157 0.034-0.244 0.152c-0.046 0.066-0.112 0.115-0.189 0.138l-0.002 0.001-0.025-0.005s-0.037-0.14-0.051-0.183c-0.007-0.021-0.012-0.045-0.012-0.069 0-0.001 0-0.001 0-0.002v0s0.083-0.082 0.081-0.115-0.014-0.318-0.056-0.383c-0.032-0.053-0.057-0.115-0.070-0.181l-0.001-0.004c-0.014-0.055-0.039-0.103-0.072-0.145l0.001 0.001c-0.029-0.025-0.098-0.078-0.107-0.091-0.020-0.037-0.049-0.067-0.083-0.089l-0.001-0.001c-0.040-0.020-0.032-0.048-0.058-0.076-0.014-0.016-0.034-0.027-0.056-0.032l-0.001-0s0.029 0.020 0.013 0.037l-0.011 0.013-0.004 0.004c-0.007 0.006-0.056-0.005-0.080 0.003-0.020 0.008-0.037 0.016-0.052 0.026l0.002-0.001c-0.015-0.014-0.036-0.023-0.058-0.023-0.012 0-0.023 0.002-0.033 0.007l0.001-0c-0.059 0.020 0.028-0.003 0.028 0.018 0 0.001 0 0.002 0 0.003 0 0.011-0.009 0.021-0.021 0.021-0 0-0.001 0-0.001-0h0c-0.005 0-0.049 0.043-0.078 0.042s-0.063 0.037-0.070 0.042l-0.059-0.005-0.024-0.018-0.002-0.002 0.004 0.015c0 0.011 0.017 0.017 0.002 0.040s-0.031 0.032-0.039 0.057-0.039 0.072-0.049 0.064-0.020-0.007-0.007-0.029 0.024-0.024 0.024-0.024-0.047-0.008-0.044 0.053c0 0-0.071 0.015-0.073 0.047 0.006-0.007 0.015-0.011 0.025-0.011 0.008 0 0.015 0.003 0.021 0.007l-0-0-0.022 0.009c-0.006 0.021-0.009 0.045-0.009 0.070 0 0 0 0 0 0v0c0.002 0.030-0.010 0.011-0.017 0.014-0.022 0.041-0.038 0.090-0.045 0.14l-0 0.002c0 0.022-0.008 0.019-0.014 0.011 0.003 0.013 0.003 0.031-0.005 0.037-0.015 0.012 0.024 0.017 0.021 0.057-0.006 0.030-0.023 0.056-0.045 0.073l-0 0 0.034 0.007 0.006 0.015 0.010-0.003c0.009 0.027 0.018 0.060 0.024 0.094l0.001 0.004c0.002 0.027 0.006 0.005 0.008 0l0.002-0.007c0.032 0.065 0.072 0.121 0.12 0.17l-0-0c0.087 0.093 0.26 0.202 0.273 0.26 0 0 0.044 0.248 0.020 0.283h-0.093l-0.008 0.039c-0.011 0.018-0.023 0.034-0.037 0.049l0-0c-0.016 0.015-0.063 0.056-0.063 0.056l-0.057 0.041c-0.012 0.011-0.026 0.021-0.040 0.031l-0.001 0.001c-0.155 0.107-0.322 0.168-0.439 0.3-0.176 0.198-0.208 0.44-0.328 0.773 0.034 0.080 0.078 0.077 0.097 0.149h0.003l-0.112 0.708c-0.024 0.175-0.116 0.39-0.108 0.592-0.027 0.318 0 0.84 0 0.84s0.017 0.247 0.037 0.336 0.146 0.218 0.146 0.218l0.243 0.075s0.038 0.011 0.041-0.022c0-0.002 0-0.003 0-0.005 0-0.019-0.007-0.037-0.017-0.051l0 0c0-0.002 0-0.005 0-0.007 0-0.012-0.003-0.024-0.009-0.034l0 0c-0.035-0.022-0.076-0.042-0.119-0.060l-0.006-0.002-0.034-0.039-0.042-0.086c-0.001-0.010-0.001-0.022-0.001-0.034 0-0.046 0.005-0.092 0.013-0.136l-0.001 0.004s0.070 0.011 0.078 0.034c0.003 0.011 0.057 0.089 0.109 0.101s0.041-0.015 0.037-0.036c-0.014-0.047-0.088-0.139-0.095-0.178-0.011-0.058-0.031-0.109-0.059-0.155l0.001 0.002c-0.016-0.019-0.034-0.035-0.055-0.048l-0.001-0.001-0.021-0.021s0.134-0.456 0.197-0.683c0.030-0.132 0.053-0.29 0.065-0.451l0.001-0.011c0.002-0.037 0.011-0.072 0.027-0.102l-0.001 0.001c0.076-0.134 0.188-0.531 0.188-0.531z"></path>
</svg>
