<svg version="1.1" xmlns="http://www.w3.org/2000/svg" width="16" height="16" viewBox="0 0 16 16">
<title>hermes</title>
<path fill="#d8d8d6" d="M3.887 7.457l0.175-0.713h-0.349l-0.178 0.713h0.352z"></path>
<path fill="#d8d8d6" d="M3.318 8.357h0.373l0.185-0.713h-0.373z"></path>
<path fill="#d8d8d6" d="M3.101 9.256h0.37l0.188-0.713h-0.373z"></path>
<path fill="#0091cd" d="M3.566 6.744h-3.566v0.152l0.596 0.561h2.786z"></path>
<path fill="#0091cd" d="M1.891 8.543v0.115l0.625 0.598h0.406l0.178-0.713z"></path>
<path fill="#0091cd" d="M3.349 7.643h-2.419v0.115l0.633 0.598h1.605z"></path>
<path fill="#000" d="M16 7.268l-0.062 0.231c-0.028 0.106-0.077 0.147-0.201 0.147h-0.353c-0.158 0-0.211 0.009-0.254 0.050-0.031 0.031-0.050 0.087-0.050 0.137 0 0.059 0.025 0.081 0.115 0.109l0.36 0.106c0.245 0.072 0.319 0.15 0.316 0.34s-0.074 0.49-0.183 0.627c-0.102 0.134-0.236 0.193-0.44 0.193h-0.874c-0.068 0-0.093-0.053-0.084-0.103 0 0 0.112-0.437 0.112-0.437h0.050c0.028 0.1 0.093 0.128 0.288 0.128h0.341c0.127 0 0.189-0.019 0.226-0.066 0.037-0.041 0.059-0.106 0.062-0.159 0.003-0.081-0.028-0.103-0.201-0.15l-0.332-0.090c-0.192-0.050-0.276-0.15-0.273-0.312 0.003-0.15 0.068-0.371 0.152-0.515 0.099-0.172 0.248-0.237 0.515-0.237h0.772zM7.486 7.25c-0.397 0-0.62 0.087-0.8 0.312-0.174 0.225-0.347 0.777-0.353 1.13-0.003 0.215 0.077 0.384 0.223 0.459 0.099 0.050 0.26 0.075 0.524 0.075 0.285 0 0.462-0.025 0.555-0.075 0.068-0.041 0.084-0.069 0.133-0.265l0.071-0.265h-0.043c-0.118 0.137-0.254 0.197-0.583 0.197-0.164 0-0.257-0.016-0.301-0.047-0.059-0.037-0.081-0.094-0.081-0.172 0-0.034 0.009-0.078 0.016-0.115l0.034-0.153h0.831c0.18 0 0.236-0.019 0.273-0.087 0.050-0.1 0.099-0.343 0.102-0.493 0.012-0.349-0.167-0.499-0.601-0.499v0zM7.638 8.005h-0.663c0.087-0.309 0.186-0.406 0.431-0.406 0.183 0 0.27 0.066 0.267 0.206 0 0.056-0.006 0.103-0.034 0.2v0zM13.62 7.25c-0.397 0-0.62 0.087-0.8 0.312-0.174 0.225-0.347 0.777-0.35 1.13-0.003 0.215 0.074 0.384 0.223 0.459 0.099 0.050 0.26 0.075 0.524 0.075 0.285 0 0.462-0.025 0.555-0.075 0.068-0.041 0.084-0.069 0.133-0.265l0.068-0.265h-0.043c-0.118 0.137-0.254 0.197-0.583 0.197-0.164 0-0.257-0.016-0.301-0.047-0.056-0.037-0.081-0.094-0.081-0.172 0-0.034 0.009-0.078 0.015-0.115l0.034-0.153h0.834c0.18 0 0.236-0.019 0.273-0.087 0.050-0.1 0.102-0.343 0.102-0.493 0.012-0.349-0.17-0.499-0.604-0.499v0zM13.771 8.005h-0.663c0.087-0.309 0.186-0.406 0.431-0.406 0.183 0 0.27 0.066 0.267 0.206 0.003 0.056-0.006 0.103-0.034 0.2v0zM9.717 7.268l-0.065 0.256c-0.028 0.106-0.074 0.137-0.22 0.137h-0.189c-0.205 0-0.27 0.056-0.325 0.29l-0.267 1.036c-0.012 0.047-0.019 0.087-0.022 0.106 0 0.041 0.022 0.062 0.065 0.078l-0.009 0.041h-0.474c-0.068 0-0.093-0.053-0.084-0.103 0 0 0.428-1.682 0.428-1.682 0.003-0.009 0.006-0.025 0.009-0.041 0-0.041-0.022-0.062-0.065-0.075l0.012-0.041h0.471c0.068 0 0.093 0.053 0.084 0.103 0 0-0.046 0.175-0.046 0.175l0.139-0.19c0.059-0.084 0.071-0.087 0.189-0.087h0.369v-0.003zM6.41 6.881c0 0-0.366 1.429-0.533 2.081-0.019 0.075-0.046 0.168 0.046 0.197-0.006 0.016-0.009 0.031-0.016 0.047h-0.53c-0.068 0-0.093-0.053-0.084-0.103l0.27-1.045h-0.725c0 0-0.186 0.73-0.229 0.902-0.012 0.047-0.022 0.087-0.022 0.109 0 0.044 0.022 0.072 0.062 0.087-0.003 0.016-0.006 0.031-0.012 0.047h-0.521c-0.068 0-0.093-0.053-0.084-0.103 0 0 0.366-1.429 0.533-2.081 0.016-0.075 0.046-0.162-0.046-0.193 0.003-0.016 0.009-0.034 0.012-0.050h0.533c0.068 0 0.093 0.053 0.084 0.103 0 0-0.201 0.789-0.201 0.789h0.719c0 0 0.112-0.431 0.167-0.649 0.012-0.050 0.019-0.084 0.019-0.109 0-0.044-0.022-0.069-0.068-0.084 0.003-0.016 0.009-0.034 0.012-0.050h0.533c0.065 0.003 0.090 0.056 0.081 0.106v0zM11.999 7.253h-0.254c-0.133 0-0.205 0.028-0.291 0.159l-0.096 0.15c0.009-0.153-0.074-0.309-0.329-0.309h-0.236c-0.198 0-0.245 0.084-0.294 0.144l-0.112 0.15c0 0 0.046-0.175 0.046-0.175 0.009-0.050-0.015-0.103-0.084-0.103h-0.474l-0.009 0.041c0.043 0.016 0.062 0.037 0.062 0.075 0 0.016 0 0.028-0.006 0.041 0 0-0.425 1.682-0.425 1.682-0.009 0.050 0.015 0.103 0.084 0.103h0.474l0.012-0.041c-0.046-0.016-0.065-0.037-0.065-0.078 0-0.019 0.009-0.059 0.019-0.106 0 0 0.26-0.992 0.267-1.030 0.062-0.259 0.133-0.29 0.27-0.306 0.028-0.003 0.053-0.003 0.096-0.003 0.136 0 0.174 0.081 0.155 0.175-0.012 0.053-0.325 1.283-0.325 1.283-0.009 0.050 0.015 0.103 0.084 0.103h0.474l0.012-0.041c-0.043-0.016-0.065-0.037-0.062-0.078 0-0.019 0.009-0.059 0.019-0.106 0 0 0.267-1.020 0.267-1.030 0.068-0.256 0.136-0.29 0.273-0.306 0.028-0.003 0.053-0.003 0.099-0.003 0.136 0 0.174 0.081 0.155 0.175-0.003 0.016-0.322 1.283-0.322 1.283-0.009 0.050 0.015 0.103 0.084 0.103h0.474l0.012-0.041c-0.046-0.016-0.065-0.037-0.065-0.078 0-0.019 0.009-0.059 0.022-0.106 0 0 0.307-1.236 0.332-1.348 0.028-0.109 0.025-0.378-0.341-0.378v0z"></path>
</svg>
