<svg version="1.1" xmlns="http://www.w3.org/2000/svg" width="20" height="16" viewBox="0 0 20 16">
<title>logsis</title>
<defs>
<linearGradient id="lg" x1="0" y1="0" x2="1" y2="0" >
<stop offset="0" style="stop-opacity:1;stop-color:#00c8ff" />
<stop offset="1" style="stop-opacity:1;stop-color:#3f87f5"/>
</linearGradient>
</defs>
<path fill="url(#lg)" d="M3.498 4.907l0.092 0.205c1.075-0.013 2.104 0.040 2.104 0.040v0l0.031 0.16c-2.553 0.803-4.37 1.787-4.37 1.787v0l0.133 0.204c1.103-0.155 1.929-0.151 1.929-0.151v0l0.045 0.152c-2.134 1.191-3.462 2.437-3.462 2.437v0l0.133 0.204c4.382-2.25 8.632-3.048 10.784-3.329v0l0.397-0.759-0.098-0.157c-1.099 0.145-2.052 0.283-2.052 0.283v0l-0.118-0.172 1.176-2.308-0.107-0.171c-1.364 0.191-4.165 0.726-6.617 1.575zM16.829 8.427c0 0-0.048 0.12-0.048 0.292v0c0 0.172 0.048 0.292 0.048 0.292v0c0 0 0.147 0.074 0.318 0.074v0c0.172 0 0.318-0.074 0.318-0.074v0c0 0 0.048-0.12 0.048-0.292v0c0-0.172-0.048-0.292-0.048-0.292v0c0 0-0.147-0.074-0.318-0.074v0c-0.172 0-0.318 0.074-0.318 0.074zM6.578 8.381v3.273h2.092v-0.642h-1.368v-2.632zM17.87 10.049c0 0.68 0.721 0.707 0.973 0.707v0h0.381v0.259c0 0-0.089 0.060-0.372 0.060v0c-0.421 0-0.76-0.115-0.763-0.117v0l-0.11 0.494c0 0 0.394 0.242 0.982 0.242v0c0.572 0 0.93-0.339 0.93-0.738v0c0-0.351-0.187-0.71-0.977-0.71v0h-0.378v-0.255c0 0 0.091-0.060 0.386-0.060v0c0.339 0 0.698 0.062 0.701 0.063v0l0.074-0.51c-0.020-0.006-0.443-0.172-0.888-0.172v0c-0.667 0-0.939 0.391-0.939 0.738zM14.404 10.049c0 0.68 0.721 0.707 0.973 0.707v0h0.381v0.259c0 0-0.089 0.060-0.372 0.060v0c-0.421 0-0.76-0.115-0.763-0.117v0l-0.11 0.494c0 0 0.394 0.242 0.982 0.242v0c0.572 0 0.93-0.339 0.93-0.738v0c0-0.351-0.187-0.71-0.977-0.71v0h-0.378v-0.255c0 0 0.091-0.060 0.386-0.060v0c0.339 0 0.698 0.062 0.701 0.063v0l0.074-0.51c-0.020-0.006-0.443-0.172-0.888-0.172v0c-0.667 0-0.939 0.391-0.939 0.738zM11.595 10.516c0 0.658 0.562 1.191 1.236 1.191v0c0.295 0 0.565-0.121 0.565-0.121v0 0.288c0 0-0.185 0.167-0.575 0.167v0c-0.446 0-0.909-0.197-0.909-0.197v0l-0.133 0.531c0 0 0.515 0.292 1.085 0.292v0c0.621 0 1.204-0.277 1.204-0.975v0l-0-2.337h-0.564l-0.107 0.19c0 0-0.24-0.222-0.565-0.222v0c-0.683 0-1.236 0.533-1.236 1.191zM12.339 10.966c0 0-0.074-0.185-0.074-0.45v0c0-0.265 0.074-0.45 0.074-0.45v0c0 0 0.226-0.115 0.491-0.115v0c0.265 0 0.491 0.115 0.491 0.115v0c0 0 0.074 0.185 0.074 0.45v0c0 0.265-0.074 0.45-0.074 0.45v0c0 0-0.226 0.115-0.491 0.115v0c-0.265 0-0.491-0.115-0.491-0.115zM8.842 10.516c0 0.658 0.553 1.191 1.236 1.191v0c0.683 0 1.236-0.533 1.236-1.191v0c0-0.658-0.553-1.191-1.236-1.191v0c-0.683 0-1.236 0.533-1.236 1.191zM9.587 10.966c0 0-0.074-0.185-0.074-0.45v0c0-0.265 0.074-0.45 0.074-0.45v0c0 0 0.226-0.115 0.491-0.115v0c0.265 0 0.491 0.115 0.491 0.115v0c0 0 0.074 0.185 0.074 0.45v0c0 0.265-0.074 0.45-0.074 0.45v0c0 0-0.226 0.115-0.491 0.115v0c-0.265 0-0.491-0.115-0.491-0.115zM16.812 11.648h0.671v-2.292h-0.671z"></path>
</svg>
