<svg version="1.1" xmlns="http://www.w3.org/2000/svg" width="16" height="16" viewBox="0 0 16 16">
<title>maxi</title>
<path fill="#215199" d="M3.751 8.458c0.031-0.21 0.006-0.421 0.025-0.631 0.006-0.792 0.031-1.578 0.037-2.371-0.328 0-0.656 0-0.978 0-0.248 0.508-0.47 1.021-0.73 1.523-0.080-0.508-0.161-1.015-0.241-1.523-0.328 0.006-0.656-0.006-0.978 0.006-0.297 0.997-0.6 1.993-0.885 2.996 0.272 0 0.545 0 0.817 0 0.031 0 0.087 0.006 0.087-0.043 0.136-0.495 0.272-0.99 0.415-1.479 0.111 0.508 0.21 1.015 0.316 1.523 0.161-0.012 0.334 0.025 0.489-0.012 0.285-0.489 0.508-1.009 0.792-1.498 0 0.501-0.043 1.003-0.050 1.51 0.291 0 0.588 0.006 0.885 0v0z"></path>
<path fill="#215199" d="M9.848 8.458c0.025-0.006 0.080 0.012 0.080-0.031 0.050-0.322 0.099-0.644 0.149-0.972 0.353-0.012 0.724 0.025 1.052-0.142 0.285-0.142 0.489-0.421 0.551-0.73 0.068-0.285 0.050-0.619-0.155-0.848-0.198-0.217-0.514-0.272-0.792-0.279-0.421 0.006-0.836 0-1.25 0.006-0.155 0.997-0.309 1.993-0.458 2.996 0.272 0 0.551 0 0.823 0v0zM10.281 6.143c0.136-0.019 0.285-0.025 0.409 0.043 0.142 0.093 0.105 0.309 0.025 0.433-0.111 0.173-0.34 0.161-0.52 0.155 0.019-0.21 0.050-0.421 0.087-0.631v0z"></path>
<path fill="#215199" d="M8.863 6.601c0.13-0.105 0.198-0.316 0.093-0.458-0.068-0.111-0.217-0.13-0.334-0.105-0.217 0.056-0.359 0.328-0.248 0.532 0.105 0.161 0.353 0.149 0.489 0.031v0z"></path>
<path fill="#215199" d="M15.183 6.341c-0.031 0.179-0.056 0.359-0.080 0.538-0.062 0-0.124 0.006-0.186 0.006-0.025 0.167-0.056 0.334-0.080 0.501 0.062 0.006 0.124 0.006 0.186 0.006-0.056 0.353-0.111 0.706-0.161 1.065 0.21 0 0.415 0 0.625 0 0.062-0.353 0.111-0.712 0.161-1.065 0.093 0 0.186 0 0.279-0.006 0.019-0.167 0.050-0.334 0.074-0.508-0.093 0-0.18 0.006-0.266 0 0.025-0.179 0.056-0.359 0.074-0.538-0.21 0-0.415 0-0.625 0v0z"></path>
<path fill="#215199" d="M5.044 7.938c0.056 0.18 0.149 0.353 0.241 0.52 0.13 0 0.26 0 0.39 0 0.080-0.526 0.161-1.052 0.248-1.572-0.204-0.006-0.415 0-0.625 0-0.006 0.056-0.019 0.111-0.031 0.173-0.149-0.254-0.489-0.285-0.737-0.186-0.495 0.192-0.718 0.829-0.526 1.306 0.149 0.353 0.638 0.433 0.941 0.229-0.050-0.13-0.099-0.272-0.136-0.409-0.080-0.019-0.179-0.050-0.21-0.136-0.068-0.186 0.019-0.427 0.21-0.495 0.13-0.050 0.303-0.025 0.371 0.111 0.068 0.161 0 0.353-0.136 0.458v0z"></path>
<path fill="#215199" d="M12.274 7.981c-0.050 0.179-0.111 0.353-0.161 0.532 0.316 0.019 0.638-0.105 0.848-0.34 0.235-0.26 0.328-0.656 0.173-0.978-0.13-0.254-0.421-0.378-0.693-0.371-0.347-0.019-0.706 0.136-0.916 0.409-0.186 0.248-0.235 0.582-0.136 0.873 0.217-0.068 0.427-0.142 0.644-0.21-0.093-0.173-0.031-0.409 0.149-0.501 0.136-0.080 0.347-0.012 0.378 0.155 0.037 0.192-0.099 0.378-0.285 0.433v0z"></path>
<path fill="#215199" d="M13.883 8.062c-0.173 0.043-0.34-0.031-0.477-0.136-0.087 0.149-0.173 0.285-0.254 0.427 0.347 0.198 0.811 0.235 1.164 0.025 0.235-0.142 0.378-0.47 0.248-0.73-0.105-0.186-0.34-0.167-0.514-0.229-0.074-0.025-0.062-0.136 0.012-0.161 0.136-0.056 0.285 0 0.409 0.056 0.099-0.105 0.155-0.248 0.235-0.371-0.384-0.186-0.922-0.179-1.207 0.167-0.13 0.179-0.198 0.489 0.012 0.631 0.142 0.118 0.365 0.062 0.477 0.21-0.025 0.043-0.043 0.105-0.105 0.111v0z"></path>
<path fill="#215199" d="M8.907 6.886c-0.21-0.006-0.421 0-0.631-0.006-0.080 0.526-0.161 1.052-0.241 1.578 0.204 0 0.415 0 0.625 0 0.080-0.526 0.161-1.046 0.248-1.572v0z"></path>
<path fill="#215199" d="M0.371 8.978c-0.043 0.198-0.087 0.396-0.124 0.594 0.043-0.006 0.080-0.006 0.124-0.006 0.019-0.087 0.037-0.18 0.056-0.266 0.099 0.043 0.080 0.173 0.124 0.26 0.043 0.012 0.087 0.012 0.13 0.012-0.031-0.105-0.056-0.217-0.118-0.309 0.068-0.068 0.111-0.173 0.204-0.217 0.006-0.025 0.012-0.050 0.019-0.074-0.192-0.031-0.21 0.192-0.34 0.266 0.012-0.087 0.031-0.173 0.043-0.26-0.037 0-0.074 0-0.118 0v0z"></path>
<path fill="#215199" d="M2.538 9.163c-0.099-0.074-0.26-0.019-0.309 0.099-0.056 0.111-0.019 0.291 0.118 0.316 0.099 0.025 0.186-0.037 0.235-0.118-0.025-0.006-0.056-0.019-0.080-0.025-0.068 0.068-0.173 0.062-0.198-0.043 0.099-0.006 0.198-0.006 0.297-0.012 0-0.074 0.006-0.161-0.062-0.217v0zM2.321 9.312c0.025-0.105 0.167-0.13 0.173 0-0.062 0-0.118 0-0.173 0v0z"></path>
<path fill="#215199" d="M0.73 9.671c0 0.025 0 0.043 0 0.068 0.068 0.006 0.149 0.012 0.186-0.062 0.111-0.173 0.204-0.359 0.309-0.532-0.043-0.006-0.087-0.006-0.13-0.006-0.056 0.111-0.105 0.217-0.155 0.328-0.012-0.111-0.025-0.217-0.043-0.328-0.037 0-0.074 0-0.118 0 0.025 0.149 0.062 0.285 0.074 0.433-0.006 0.062-0.074 0.080-0.124 0.099v0z"></path>
<path fill="#215199" d="M1.591 9.51c0.080-0.099 0.111-0.303-0.025-0.371-0.093-0.006-0.186 0.025-0.285 0.006-0.037 0.198-0.074 0.396-0.118 0.6 0.043-0.006 0.080-0.006 0.118-0.006 0.019-0.068 0.031-0.142 0.037-0.217 0.074 0.074 0.21 0.080 0.272-0.012v0zM1.448 9.213c0.173-0.019 0.093 0.347-0.056 0.26-0.068-0.068-0.037-0.223 0.056-0.26v0z"></path>
<path fill="#215199" d="M1.789 9.139c-0.037 0.142-0.062 0.285-0.093 0.427 0.111 0 0.223 0.012 0.334-0.006 0.099-0.019 0.142-0.179 0.043-0.229-0.062-0.025-0.136-0.019-0.204-0.019 0.012-0.056 0.019-0.111 0.031-0.173-0.037 0-0.074 0-0.111 0v0zM2.005 9.405c0.043 0.105-0.111 0.093-0.179 0.093 0.012-0.037 0.019-0.074 0.025-0.118 0.056 0.006 0.111 0 0.155 0.025v0z"></path>
<path fill="#215199" d="M3.014 9.529c0.093-0.099 0.13-0.303 0-0.384-0.093-0.019-0.198 0.019-0.291-0.006-0.043 0.204-0.080 0.402-0.118 0.6 0.037 0 0.074 0.006 0.111 0.006 0.012-0.068 0.031-0.142 0.043-0.21 0.074 0.050 0.186 0.068 0.254-0.006v0zM2.878 9.219c0.173-0.043 0.111 0.328-0.043 0.26-0.074-0.068-0.043-0.217 0.043-0.26v0z"></path>
<path fill="#215199" d="M3.342 9.225c0.056-0.031 0.087 0.031 0.118 0.062 0.037-0.006 0.068-0.012 0.105-0.012-0.025-0.080-0.087-0.155-0.179-0.142-0.198-0.006-0.303 0.266-0.179 0.402 0.105 0.099 0.285 0.025 0.316-0.105-0.093-0.037-0.149 0.062-0.241 0.056-0.019-0.087-0.019-0.204 0.062-0.26v0z"></path>
<path fill="#215199" d="M3.683 9.139c-0.031 0.149-0.068 0.285-0.099 0.427 0.043 0 0.087 0.006 0.124 0.006 0.012-0.068 0.025-0.136 0.043-0.198 0.068 0.043 0.068 0.124 0.093 0.192 0.037 0.006 0.074 0.006 0.111 0.006-0.012-0.080-0.037-0.155-0.068-0.223 0.056-0.068 0.111-0.13 0.149-0.21-0.149-0.031-0.173 0.136-0.272 0.198 0.006-0.062 0.019-0.13 0.037-0.198-0.043 0-0.080 0-0.118 0v0z"></path>
<path fill="#215199" d="M4.079 9.572c0.056 0.025 0.105-0.006 0.155-0.025 0.043 0.012 0.093 0.025 0.136 0.031-0.019-0.13 0.068-0.254 0.037-0.378-0.087-0.118-0.303-0.080-0.359 0.050 0.093 0.043 0.254-0.124 0.254 0.043-0.074 0.012-0.155 0.012-0.223 0.043-0.093 0.037-0.093 0.198 0 0.235v0zM4.277 9.362c-0.006 0.087-0.080 0.161-0.167 0.105 0.012-0.087 0.099-0.093 0.167-0.105v0z"></path>
<path fill="#215199" d="M4.735 9.386c-0.006 0.062-0.019 0.124-0.031 0.186 0.043 0 0.080-0.006 0.118-0.006 0.031-0.142 0.062-0.285 0.093-0.421-0.124 0-0.248-0.025-0.359 0.025-0.093 0.050-0.080 0.167-0.006 0.229-0.050 0.050-0.093 0.111-0.136 0.167 0.167 0.062 0.198-0.136 0.322-0.18v0zM4.778 9.207c-0.006 0.043-0.012 0.087-0.019 0.13-0.068 0-0.136-0.006-0.173-0.068 0.050-0.056 0.118-0.062 0.192-0.062v0z"></path>
<path fill="#215199" d="M5.255 9.145c-0.031 0.142-0.062 0.285-0.093 0.421 0.043 0 0.080 0 0.118 0 0.012-0.062 0.031-0.13 0.050-0.198 0.056 0.056 0.068 0.13 0.087 0.198 0.037 0.006 0.074 0.006 0.111 0.006-0.012-0.074-0.031-0.155-0.068-0.223 0.050-0.068 0.118-0.13 0.149-0.21-0.149-0.031-0.173 0.136-0.272 0.198 0.006-0.068 0.019-0.13 0.037-0.198-0.043 0-0.080 0.006-0.118 0.006v0z"></path>
<path fill="#215199" d="M6.029 9.256c-0.031-0.124-0.192-0.155-0.303-0.105-0.173 0.074-0.179 0.409 0.037 0.427 0.179 0.037 0.309-0.161 0.266-0.322v0zM5.787 9.232c0.192-0.080 0.161 0.279 0 0.254-0.118-0.025-0.080-0.204 0-0.254v0z"></path>
<path fill="#215199" d="M6.573 9.566c0.037-0.136 0.068-0.279 0.093-0.421-0.043 0-0.093 0-0.142 0-0.056 0.093-0.111 0.192-0.167 0.285-0.012-0.099-0.031-0.192-0.043-0.285-0.043 0-0.093-0.006-0.136-0.006-0.037 0.142-0.068 0.285-0.093 0.433 0.037 0 0.068-0.006 0.099-0.006 0.019-0.087 0.037-0.173 0.056-0.26 0.019 0.087 0.031 0.173 0.043 0.266 0.031 0 0.062-0.006 0.093-0.006 0.043-0.087 0.093-0.173 0.142-0.26-0.012 0.093-0.031 0.18-0.043 0.266 0.031 0 0.068-0.006 0.099-0.006v0z"></path>
<path fill="#215199" d="M7.068 9.566c0.031-0.142 0.062-0.279 0.093-0.421-0.13-0.006-0.26-0.006-0.39 0-0.025 0.136-0.062 0.279-0.080 0.421 0.037 0.006 0.068 0.006 0.105 0.006 0.025-0.111 0.050-0.229 0.074-0.34 0.050 0 0.099 0 0.155 0-0.025 0.111-0.050 0.223-0.074 0.34 0.043 0 0.080 0 0.118-0.006v0z"></path>
<path fill="#215199" d="M7.236 9.343c-0.087 0.050-0.068 0.198 0.025 0.229 0.050 0.019 0.099-0.006 0.149-0.019 0.043 0.006 0.093 0.012 0.136 0.025-0.019-0.13 0.062-0.254 0.037-0.378-0.087-0.118-0.303-0.080-0.359 0.050 0.093 0.031 0.167-0.050 0.254-0.031 0 0.019 0 0.056-0.006 0.074-0.074 0.012-0.161 0.012-0.235 0.050v0zM7.291 9.405c0.056-0.019 0.111-0.031 0.167-0.043 0.006 0.105-0.161 0.192-0.167 0.043v0z"></path>
<path fill="#215199" d="M7.725 9.139c-0.031 0.142-0.068 0.285-0.087 0.427 0.037 0.006 0.074 0.006 0.111 0.006 0.012-0.062 0.025-0.124 0.043-0.186 0.050 0 0.099 0 0.149 0-0.012 0.062-0.025 0.124-0.037 0.186 0.037 0 0.080-0.006 0.118-0.006 0.025-0.142 0.068-0.279 0.093-0.427-0.037 0-0.080 0.006-0.124 0.006-0.006 0.050-0.019 0.099-0.031 0.149-0.050 0.006-0.099 0.006-0.142 0.006 0.006-0.056 0.012-0.105 0.019-0.155-0.037-0.006-0.074-0.006-0.111-0.006v0z"></path>
<path fill="#215199" d="M8.232 9.145c-0.025 0.118-0.074 0.235-0.068 0.359 0.031 0.105 0.155 0.080 0.229 0.043 0.043 0.012 0.080 0.019 0.124 0.025 0.031-0.142 0.068-0.285 0.099-0.433-0.043 0.006-0.080 0.006-0.118 0.006-0.037 0.13-0.025 0.297-0.167 0.365-0.099-0.099 0.012-0.248 0.019-0.371-0.037 0-0.080 0.006-0.118 0.006v0z"></path>
<path fill="#215199" d="M8.715 9.572c0.056-0.068 0.105-0.155 0.198-0.18-0.012 0.062-0.025 0.118-0.037 0.18 0.043 0 0.080-0.006 0.118-0.006 0.031-0.142 0.062-0.279 0.087-0.421-0.149 0-0.452-0.062-0.421 0.186 0.019 0.019 0.037 0.043 0.062 0.062-0.056 0.056-0.099 0.111-0.136 0.173 0.043 0 0.087 0.006 0.13 0.006v0zM8.95 9.207c-0.006 0.043-0.012 0.087-0.025 0.124-0.050-0.006-0.105 0.006-0.149-0.025-0.031-0.105 0.111-0.093 0.173-0.099v0z"></path>
<path fill="#e44619" d="M6.518 8.452c0.149-0.111 0.26-0.279 0.39-0.415 0.093 0.136 0.167 0.285 0.254 0.421 0.26 0 0.514 0.006 0.768 0-0.167-0.266-0.347-0.526-0.52-0.792-0.012-0.025-0.037-0.056-0.006-0.080 0.217-0.235 0.446-0.464 0.662-0.699-0.254-0.006-0.514-0.006-0.768 0-0.087 0.111-0.167 0.223-0.26 0.322-0.062-0.105-0.111-0.217-0.167-0.322-0.248-0.006-0.501 0-0.755 0 0.155 0.235 0.303 0.483 0.464 0.724-0.266 0.285-0.545 0.557-0.805 0.842 0.248 0.006 0.495 0.012 0.743 0v0z"></path>
<path fill="#e44619" d="M9.823 9.553c-1.058 0.483-2.333 0.551-3.404 0.074-0.173-0.037-0.359-0.012-0.545-0.019 0.297 0.328 0.699 0.545 1.108 0.712 1.473 0.526 3.181 0.087 4.326-0.947 0.080 0.173 0.161 0.353 0.248 0.526 0.21-0.638 0.409-1.287 0.613-1.925-0.644 0.21-1.294 0.402-1.937 0.613 0.173 0.093 0.353 0.18 0.526 0.266-0.235 0.316-0.594 0.514-0.935 0.699v0z"></path>
<path fill="#e44619" d="M5.441 8.891c-0.136-0.186-0.241-0.396-0.384-0.576 0.012 0.167 0.118 0.297 0.179 0.452 0.025 0.099 0.111 0.142 0.204 0.124v0z"></path>
</svg>
