<svg version="1.1" xmlns="http://www.w3.org/2000/svg" width="16" height="16" viewBox="0 0 16 16">
<title>pony</title>
<path fill="#008752" d="M1.11 3.582l-0.478 1.775h0.426l0.14-0.534h0.323c0.431 0 0.838-0.21 0.946-0.623 0.098-0.365-0.112-0.618-0.571-0.618h-0.787zM2.037 4.205c-0.042 0.154-0.197 0.272-0.407 0.272v0.004h-0.337l0.145-0.543h0.328c0.211 0 0.318 0.094 0.271 0.267z"></path>
<path fill="#008752" d="M2.566 4.467c-0.136 0.51 0.183 0.918 0.777 0.918s1.138-0.412 1.274-0.918c0.136-0.51-0.183-0.918-0.777-0.918s-1.138 0.412-1.274 0.918zM4.172 4.467c-0.080 0.309-0.384 0.557-0.726 0.557s-0.515-0.253-0.436-0.557c0.080-0.309 0.384-0.557 0.726-0.557s0.515 0.253 0.436 0.557z"></path>
<path fill="#008752" d="M5.502 3.582h-0.393l-0.478 1.77h0.421l0.3-1.124 0.632 1.124h0.361l0.478-1.77h-0.417l-0.295 1.091z"></path>
<path fill="#008752" d="M7.712 5.352l0.188-0.707 1.030-1.063h-0.482l-0.66 0.712-0.272-0.712h-0.496l0.454 1.072-0.187 0.698z"></path>
<path fill="#008752" d="M1.836 6.293l0.094-0.347h-1.451l-0.478 1.775h1.47l0.094-0.346h-1.049l0.098-0.375h0.908l0.094-0.347h-0.908l0.098-0.361z"></path>
<path fill="#008752" d="M3.428 5.947l-0.562 0.576-0.248-0.576h-0.496l0.412 0.871-0.918 0.904h0.482l0.599-0.609 0.272 0.609h0.496l-0.431-0.908 0.876-0.866z"></path>
<path fill="#008752" d="M4.177 5.947l-0.478 1.775h0.426l0.14-0.534h0.323c0.431 0 0.838-0.211 0.946-0.623 0.098-0.365-0.112-0.618-0.571-0.618h-0.787zM5.104 6.569c-0.042 0.154-0.197 0.272-0.407 0.272v0.005h-0.337l0.145-0.543h0.328c0.21 0 0.318 0.094 0.271 0.267z"></path>
<path fill="#008752" d="M7.384 6.537c0.047-0.173 0.023-0.314-0.056-0.412-0.098-0.112-0.272-0.178-0.515-0.178h-0.88l-0.478 1.775h0.426l0.155-0.567h0.328l0.262 0.562h0.496l-0.3-0.632c0.267-0.080 0.487-0.262 0.562-0.548zM6.949 6.551c-0.042 0.154-0.187 0.258-0.393 0.258h-0.431l0.136-0.51h0.421c0.206-0 0.314 0.084 0.267 0.253z"></path>
<path fill="#008752" d="M9.211 6.293l0.094-0.347h-1.456l-0.478 1.775h1.47l0.094-0.346h-1.049l0.098-0.375h0.913l0.094-0.347h-0.913l0.098-0.361z"></path>
<path fill="#008752" d="M10.138 6.27c0.164 0 0.314 0.066 0.454 0.174l0.3-0.295c-0.154-0.145-0.375-0.225-0.655-0.225-0.393 0-0.735 0.21-0.82 0.534-0.098 0.356 0.126 0.459 0.492 0.548 0.3 0.075 0.356 0.126 0.328 0.225-0.028 0.108-0.15 0.173-0.323 0.173-0.22 0-0.379-0.084-0.52-0.215l-0.323 0.276c0.183 0.187 0.454 0.286 0.745 0.286 0.417 0 0.763-0.197 0.857-0.548 0.085-0.314-0.103-0.445-0.468-0.538-0.314-0.080-0.389-0.117-0.356-0.234 0.023-0.089 0.126-0.159 0.29-0.159z"></path>
<path fill="#008752" d="M11.795 6.27c0.164 0 0.314 0.066 0.454 0.174l0.3-0.295c-0.155-0.145-0.374-0.225-0.656-0.225-0.393 0-0.735 0.21-0.819 0.534-0.098 0.356 0.126 0.459 0.492 0.548 0.3 0.075 0.356 0.126 0.328 0.225-0.028 0.108-0.15 0.173-0.323 0.173-0.22 0-0.379-0.084-0.52-0.215l-0.323 0.276c0.182 0.187 0.45 0.286 0.744 0.286 0.417 0 0.763-0.197 0.857-0.548 0.084-0.314-0.103-0.445-0.468-0.538-0.313-0.080-0.389-0.117-0.356-0.234 0.023-0.089 0.126-0.159 0.29-0.159z"></path>
<path fill="#7ac143" d="M12.455 12.45l3.545-3.549h-7.951l-0.318 1.185h5.418l-1.531 1.531z"></path>
</svg>
