<svg version="1.1" xmlns="http://www.w3.org/2000/svg" width="16" height="16" viewBox="0 0 16 16">
<title>rupost</title>
<path fill="#2051a8" d="M7.441 7.651c0.24-0.321 0.297-0.746-0.073-0.998-0.267 0.318-0.272 0.737 0.073 0.998z"></path>
<path fill="#2051a8" d="M7.629 6.831c0.057-0.289 0.104-0.58 0.109-0.875-0.286 0.215-0.462 0.623-0.109 0.875z"></path>
<path fill="#2051a8" d="M8.252 7.13c-0.154-0.091-0.34-0.068-0.511-0.081-0.006 0.26 0.106 0.49 0.277 0.68 0.095-0.188 0.28-0.371 0.234-0.599z"></path>
<path fill="#2051a8" d="M6.814 7.852c0.115 0.197 0.241 0.387 0.384 0.565 0.237-0.319 0.247-0.711-0.063-0.985-0.108 0.139-0.214 0.28-0.321 0.42z"></path>
<path fill="#2051a8" d="M6.954 9.094c0.189-0.307 0.183-0.689-0.085-0.95-0.174 0.31-0.189 0.693 0.085 0.95z"></path>
<path fill="#2051a8" d="M5.566 10.917c-0.006 0.037-0.016 0.109-0.021 0.146 0.258 0.051 0.506 0.145 0.766 0.189-0.175-0.236-0.481-0.269-0.745-0.336z"></path>
<path fill="#2051a8" d="M7.778 8.467c0.205-0.352 0.213-0.789-0.148-1.042-0.177 0.352-0.158 0.77 0.148 1.042z"></path>
<path fill="#2051a8" d="M6.876 6.728c-0.276 0.22-0.214 0.6-0.081 0.881 0.331-0.010 0.39-0.746 0.081-0.881z"></path>
<path fill="#2051a8" d="M7.12 9.681c0.211-0.226 0.162-0.545 0.086-0.816-0.252 0.158-0.398 0.715-0.086 0.816z"></path>
<path fill="#2051a8" d="M7.279 10.296c0.169-0.221 0.105-0.489 0.019-0.729-0.246 0.198-0.423 0.597-0.019 0.729z"></path>
<path fill="#2051a8" d="M8.039 6.21c0.168-0.194 0.189-0.55-0.080-0.665-0.151 0.201-0.199 0.548 0.080 0.665z"></path>
<path fill="#2051a8" d="M7.962 7.025c0.225-0.18 0.3-0.449 0.301-0.728-0.562-0.24-0.615 0.416-0.301 0.728z"></path>
<path fill="#2051a8" d="M7.157 6.883c0.156-0.312 0.294-0.651 0.229-1.008-0.131 0.309-0.524 0.689-0.229 1.008z"></path>
<path fill="#2051a8" d="M9.887 9.355c-0.088 0.277-0.024 0.566 0.059 0.836 0.256-0.331 0.376-0.743 0.351-1.16-0.085 0.183-0.154 0.372-0.215 0.564-0.055-0.092-0.046-0.269-0.195-0.241z"></path>
<path fill="#2051a8" d="M7.125 5.751c0.3-0.204 0.316-0.564 0.229-0.885-0.286 0.206-0.258 0.573-0.229 0.885z"></path>
<path fill="#2051a8" d="M9.458 7.612c-0.398 0.457 0.033 0.98 0.231 1.422 0.325-0.479 0.3-1.104-0.231-1.422z"></path>
<path fill="#2051a8" d="M7.979 8.277c-0.225 0.291-0.23 0.639 0.003 0.926 0.282-0.271 0.285-0.656-0.003-0.926z"></path>
<path fill="#2051a8" d="M8.893 9.758c0.227-0.28 0.205-0.681-0.101-0.892-0.106 0.302-0.065 0.62 0.101 0.892z"></path>
<path fill="#2051a8" d="M9.044 9.053c0.333-0.201 0.228-0.624 0.086-0.91-0.23 0.248-0.311 0.629-0.086 0.91z"></path>
<path fill="#2051a8" d="M9.652 10.439c-0.164-0.209-0.354-0.427-0.633-0.467-0.060 0.369 0.385 0.39 0.633 0.467z"></path>
<path fill="#2051a8" d="M9.186 7.851c-0.108-0.14-0.216-0.281-0.325-0.421-0.3 0.278-0.296 0.666-0.061 0.985 0.144-0.177 0.271-0.366 0.386-0.564z"></path>
<path fill="#2051a8" d="M9.371 6.997c0.013 0.129 0.027 0.26 0.042 0.391-0.058 0.114-0.113 0.228-0.164 0.345 0.287-0.16 0.444-0.449 0.555-0.746-0.144 0.003-0.289 0.007-0.432 0.011z"></path>
<path fill="#2051a8" d="M9.555 6.124c-0.21-0.162-0.428-0.312-0.644-0.465 0.021 0.343 0.278 0.725 0.644 0.465z"></path>
<path fill="#2051a8" d="M9.205 7.618c0.132-0.295 0.215-0.747-0.155-0.903-0.159 0.262-0.201 0.825 0.155 0.903z"></path>
<path fill="#2051a8" d="M8.763 5.887c0.127 0.396 0.301 0.943 0.782 0.995 0.361-0.016 0.347-0.44 0.361-0.702-0.384 0.512-0.855 0.065-1.143-0.293z"></path>
<path fill="#2051a8" d="M7.459 8.217c-0.366 0.199-0.271 0.655-0.054 0.93 0.277-0.231 0.336-0.68 0.054-0.93z"></path>
<path fill="#2051a8" d="M8.369 7.424c-0.362 0.255-0.352 0.691-0.147 1.044 0.304-0.275 0.325-0.69 0.147-1.044z"></path>
<path fill="#2051a8" d="M8.876 5.753c0.027-0.312 0.056-0.68-0.229-0.888-0.090 0.321-0.077 0.687 0.229 0.888z"></path>
<path fill="#2051a8" d="M7.711 8.91c-0.335 0.275-0.37 0.712-0.144 1.068 0.309-0.275 0.373-0.72 0.144-1.068z"></path>
<path fill="#2051a8" d="M3.136 7.611c0.484 0.077 0.998-0.097 1.218-0.562-0.475-0.076-1.078 0.022-1.218 0.562z"></path>
<path fill="#2051a8" d="M8.629 6.656c-0.365 0.253-0.319 0.674-0.073 0.993 0.358-0.253 0.346-0.68 0.073-0.993z"></path>
<path fill="#2051a8" d="M8.842 6.882c0.297-0.319-0.101-0.699-0.234-1.007-0.055 0.357 0.077 0.695 0.234 1.007z"></path>
<path fill="#2051a8" d="M8.26 5.957c0.012 0.294 0.057 0.586 0.109 0.876 0.353-0.252 0.177-0.662-0.109-0.876z"></path>
<path fill="#2051a8" d="M12.682 11.97c0.17-0.48-0.101-0.956-0.224-1.412-0.202 0.194-0.415 0.378-0.643 0.541 0.194 0.193 0.35 0.418 0.479 0.66-0.45-0.415-1.286-0.358-1.399 0.34-0.173-0.339-0.284-0.792-0.677-0.939-0.041 0.043-0.123 0.129-0.164 0.173-0.065-0.043-0.128-0.085-0.192-0.127 0.221-0.058 0.44-0.115 0.658-0.184-0.28-0.175-0.577 0.058-0.847 0.14-0.147-0.172-0.313-0.325-0.495-0.458-0.258-0.242-0.553-0.44-0.85-0.629 0.088 0.258 0.151 0.625 0.472 0.685 0.276 0.056 0.558 0.151 0.681 0.428-0.108 0.063-0.215 0.128-0.32 0.193 0.202 0.041 0.405 0.009 0.598-0.061 0.669 0.333 1.018 0.988 1.295 1.647-0.049 0.284 0.102 0.459 0.389 0.495-0.062-0.115-0.123-0.227-0.186-0.339 0.028-0.028 0.054-0.058 0.076-0.089 0.061 0.242 0.211 0.446 0.487 0.417 0.091-0.297-0.297-0.327-0.486-0.418 0.056-0.078 0.085-0.166 0.038-0.268 0.227-0.057 0.451-0.124 0.675-0.197-0.236-0.321-0.603-0.136-0.882 0.006-0.456-0.394 0.207-1.142 0.691-0.874 0.316 0.138 0.453 0.584 0.234 0.861-0.165 0.144-0.396 0.179-0.592 0.266 0.625 0.282 0.988-0.375 1.184-0.857z"></path>
<path fill="#2051a8" d="M12.458 5.208c1.191-0.56 2.418-1.802 2.007-3.234-0.779 0.665-1.438 1.535-1.752 2.516 0.467-0.366 0.693-0.962 1.208-1.277-0.247 0.836-1.206 1.163-1.463 1.995z"></path>
<path fill="#2051a8" d="M11.625 8.397c0.238 0.376 0.613 0.674 0.705 1.13-0.346-0.225-0.471-0.684-0.866-0.837 0.25 0.589 0.59 1.216 1.246 1.413-0.038-0.691-0.421-1.438-1.085-1.707z"></path>
<path fill="#2051a8" d="M13.008 5.079c-0.482 0.143-0.954 0.367-1.288 0.753 0.595 0.296 1.162-0.173 1.288-0.753z"></path>
<path fill="#2051a8" d="M11.631 10.283c0.146-0.559-0.003-1.165-0.406-1.581 0.052 0.315 0.13 0.626 0.142 0.948-0.238-0.333-0.211-0.765-0.393-1.122-0.083 0.638 0.005 1.444 0.658 1.755z"></path>
<path fill="#2051a8" d="M12.401 10.425c0.065-0.184-0.179-0.286-0.314-0.2-0.271 0.137-0.654 0.427-0.519 0.768 0.369 0.072 0.673-0.275 0.833-0.568z"></path>
<path fill="#2051a8" d="M12.879 5.989c-0.432-0.031-1.059-0.122-1.144 0.454 0.431 0.065 0.974 0.026 1.144-0.454z"></path>
<path fill="#2051a8" d="M12.869 7.612c-0.142-0.54-0.749-0.641-1.223-0.561 0.223 0.464 0.736 0.637 1.223 0.561z"></path>
<path fill="#2051a8" d="M11.897 6.848c0.366 0.278 0.892 0.229 1.227-0.074-0.35-0.299-0.971-0.398-1.227 0.074z"></path>
<path fill="#2051a8" d="M12.405 7.857c-0.271-0.311-0.678-0.452-1.076-0.313 0.057 0.080 0.117 0.162 0.175 0.243-0.090 0.098-0.179 0.199-0.266 0.3 0.223 0.18 0.486 0.31 0.781 0.295-0.085-0.147-0.172-0.291-0.267-0.431 0.22-0.013 0.438-0.044 0.652-0.094z"></path>
<path fill="#2051a8" d="M12.149 13.009c-0.209-0.081-0.434-0.099-0.655-0.109 0.109 0.234 0.638 0.534 0.655 0.109z"></path>
<path fill="#2051a8" d="M3.298 4.524c-0.309-0.994-0.973-1.879-1.764-2.548-0.086 0.53-0.138 1.12 0.172 1.591 0.45 0.69 1.062 1.311 1.83 1.638-0.25-0.836-1.219-1.159-1.46-2 0.518 0.333 0.764 0.925 1.222 1.319z"></path>
<path fill="#2051a8" d="M10.983 13.174c-0.008-0.036-0.022-0.106-0.029-0.142-0.43-0.070-0.864-0.119-1.282-0.249 0.104-0.164 0.21-0.328 0.315-0.492 0.073 0.010 0.145 0.020 0.219 0.031-0.004-0.164-0.007-0.329-0.009-0.493-0.116 0.039-0.232 0.079-0.346 0.12-0.333 0.827-0.97 1.487-1.47 2.216-0.262-0.433-0.486-0.888-0.753-1.318-0.247 0.342-0.475 0.698-0.701 1.054-0.058 0.011-0.173 0.032-0.231 0.043-0.001 0.158-0.001 0.316-0.001 0.474 0.148-0.052 0.295-0.103 0.444-0.154-0.107-0.406 0.295-0.689 0.475-1.006 0.26 0.43 0.489 0.878 0.752 1.305 0.408-0.537 0.793-1.091 1.183-1.642 0.465 0.139 0.945 0.26 1.434 0.252z"></path>
<path fill="#2051a8" d="M9.003 4.641c0.056 0.007 0.167 0.021 0.222 0.028-0.078 0.089-0.156 0.178-0.234 0.267 0.031 0.137 0.061 0.273 0.094 0.411 0.118-0.262 0.235-0.526 0.363-0.783-0.037 0.006-0.111 0.017-0.148 0.022 0.091-0.121 0.182-0.243 0.269-0.368-0.229 0.080-0.419 0.232-0.567 0.423z"></path>
<path fill="#2051a8" d="M4 8.303c-0.339 0.226-0.624 0.529-0.997 0.703 0.245-0.45 0.765-0.624 1.064-1.024-0.221 0.038-0.434 0.105-0.64 0.19 0.058-0.090 0.115-0.18 0.172-0.27-0.362 0.226-0.702 0.503-1.118 0.627 0.209-0.346 0.6-0.484 0.921-0.698-0.774 0.179-1.653 0.566-1.832 1.43 0.771 0.003 1.246-0.642 1.813-1.049-0.415 0.465-0.932 0.915-0.97 1.587 0.788-0.125 1.184-0.897 1.586-1.495z"></path>
<path fill="#2051a8" d="M7.632 14.57c0.163-0.226 0.301-0.478 0.285-0.766-0.103 0.102-0.201 0.209-0.299 0.316-0.109-0.101-0.215-0.203-0.332-0.292-0.151 0.279 0.221 0.517 0.346 0.743z"></path>
<path fill="#2051a8" d="M9.297 14.434c0.002-0.164 0.003-0.326 0.004-0.49-0.123-0.031-0.246-0.062-0.369-0.093-0.142 0.331 0.054 0.509 0.365 0.583z"></path>
<path fill="#2051a8" d="M8.008 11.678c-0.277 0.361-0.594 0.689-0.901 1.025 0.569-0.281 1.225-0.283 1.793 0.003-0.307-0.334-0.632-0.655-0.892-1.028z"></path>
<path fill="#2051a8" d="M4.472 11.032c0.008-0.469-0.428-0.927-0.912-0.804 0.086 0.44 0.461 0.783 0.912 0.804z"></path>
<path fill="#2051a8" d="M5.028 8.507c-0.186 0.364-0.173 0.798-0.402 1.144 0.009-0.321 0.085-0.632 0.141-0.946-0.413 0.411-0.536 1.023-0.396 1.579 0.639-0.329 0.732-1.136 0.656-1.777z"></path>
<path fill="#2051a8" d="M3.288 10.102c0.658-0.194 1.001-0.821 1.242-1.414-0.388 0.164-0.518 0.615-0.862 0.841 0.091-0.436 0.439-0.731 0.665-1.094-0.653 0.251-1 1.001-1.045 1.666z"></path>
<path fill="#2051a8" d="M5.371 8.060c-0.411 0.214-0.2 0.815 0.074 1.077-0.022 0.2-0.056 0.399-0.114 0.593-0.045-0.284-0.065-0.574-0.163-0.846-0.092 0.472-0.128 1.004 0.165 1.418 0.163-0.419 0.261-0.873 0.183-1.322 0.027-0.303 0.223-0.757-0.145-0.92z"></path>
<path fill="#2051a8" d="M15.365 3.159c-0.627 0.307-1.124 0.805-1.62 1.284-0.258 0.263-0.658 0.463-0.683 0.876-0.064 0.092-0.13 0.183-0.193 0.275 0.82-0.17 1.591-0.585 2.174-1.188 0.316-0.332 0.337-0.815 0.322-1.247z"></path>
<path fill="#2051a8" d="M4.698 8.143c-0.052-0.129-0.112-0.253-0.179-0.373 0.038-0.090 0.075-0.181 0.114-0.271-0.365-0.048-0.769 0.016-0.993 0.34 0.185 0.104 0.398 0.111 0.605 0.11-0.091 0.141-0.178 0.285-0.26 0.432 0.179-0.028 0.358-0.060 0.536-0.097-0.043 0.139-0.084 0.276-0.122 0.417 0.412-0.055 0.785-0.311 0.82-0.755-0.176 0.058-0.35 0.124-0.52 0.198z"></path>
<path fill="#2051a8" d="M4.104 6.848c-0.257-0.47-0.879-0.376-1.228-0.073 0.337 0.301 0.861 0.35 1.228 0.073z"></path>
<path fill="#2051a8" d="M4.266 6.441c-0.089-0.546-0.684-0.509-1.107-0.446 0.083 0.502 0.715 0.498 1.107 0.446z"></path>
<path fill="#2051a8" d="M2.992 5.079c0.123 0.576 0.719 1.086 1.297 0.712-0.376-0.328-0.817-0.578-1.297-0.712z"></path>
<path fill="#2051a8" d="M10.669 5.792c-0.402 0.406 0.311 0.904 0.098 1.343-0.362 0.331-1.021-0.12-1.21 0.461 0.086 0.048 0.172 0.098 0.259 0.147 0.025 0.122 0.050 0.244 0.076 0.366 0.127-0.080 0.253-0.161 0.379-0.244 0.449 0.237-0.060 0.821 0.276 1.181 0.368-0.082 0.272-0.576 0.296-0.865 0.138 0.31 0.447 0.498 0.803 0.519-0.127-0.395-0.448-0.705-0.87-0.753 0.012 0.080 0.033 0.155 0.063 0.224-0.053-0.028-0.154-0.080-0.205-0.107 0.027-0.1 0.053-0.2 0.081-0.298 0.164 0.088 0.329 0.18 0.507 0.244 0.068-0.185 0.053-0.382 0.043-0.574 0.166 0.001 0.332 0 0.5-0.003-0.069-0.146-0.139-0.291-0.211-0.435 0.16-0.113 0.318-0.229 0.474-0.347-0.135-0.079-0.269-0.156-0.404-0.231 0.101-0.171 0.197-0.345 0.29-0.52-0.199-0.002-0.396 0.001-0.593 0.008 0.329-0.332 0.49-0.785 0.475-1.251-0.303 0.447-0.711 0.798-1.127 1.134z"></path>
<path fill="#2051a8" d="M7.759 12.587c0.138 0.31 0.324 0.271 0.491 0.004-0.164-0.004-0.327-0.006-0.491-0.004z"></path>
<path fill="#2051a8" d="M10.679 9.72c-0.071-0.238-0.135-0.478-0.219-0.711-0.037 0.44 0.049 0.878 0.201 1.291 0.303-0.409 0.256-0.943 0.166-1.414-0.095 0.269-0.118 0.554-0.148 0.835z"></path>
<path fill="#2051a8" d="M11.695 5.652c0.593-0.27 1.086-0.868 0.968-1.555-0.695 0.194-0.824 0.955-0.968 1.555z"></path>
<path fill="#2051a8" d="M8.447 10.748c-0.257 0.567 0.218 1.226 0.806 1.293-0.205-0.363-0.626-0.558-0.755-0.968 0.266 0.222 0.502 0.496 0.84 0.613-0.23-0.371-0.601-0.619-0.891-0.938z"></path>
<path fill="#2051a8" d="M8.39 13.291c0.116 0.125 0.235 0.248 0.36 0.366 0.015-0.324-0.19-0.575-0.386-0.806-0.165 0.233-0.301 0.495-0.273 0.791 0.102-0.115 0.201-0.231 0.299-0.351z"></path>
<path fill="#2051a8" d="M8.012 10.958c-0.11-0.221-0.234-0.436-0.389-0.627-0.029 0.348 0.108 0.672 0.173 1.007-0.226 0.57-0.729 0.955-1.177 1.345 0.024 0.020 0.074 0.061 0.099 0.081 0.458-0.215 0.779-0.627 1.040-1.048 0.074-0.152 0.294-0.265 0.412-0.091 0.336 0.427 0.639 1.076 1.255 1.104-0.454-0.414-0.989-0.799-1.221-1.392 0.064-0.336 0.205-0.658 0.173-1.007-0.166 0.181-0.276 0.401-0.364 0.628z"></path>
<path fill="#2051a8" d="M10.31 7.934c-0.38 0.366-0.457 0.912-0.561 1.403 0.596-0.183 0.682-0.88 0.561-1.403z"></path>
<path fill="#2051a8" d="M4.854 2.642c0.048 0.387 0.127 0.771 0.216 1.15 0.173-0.345 0.199-1.043-0.216-1.15z"></path>
<path fill="#2051a8" d="M6.372 2.772c0.212-0.114 0.126-0.329-0.002-0.474-0.134 0.143-0.206 0.36 0.002 0.474z"></path>
<path fill="#2051a8" d="M5.918 2.849c0.078 0.194 0.114 0.499 0.379 0.517 0.005-0.253-0.13-0.452-0.379-0.517z"></path>
<path fill="#2051a8" d="M6.452 3.346c0.25 0.033 0.293-0.32 0.375-0.488-0.238 0.058-0.391 0.24-0.375 0.488z"></path>
<path fill="#2051a8" d="M5.566 3.393c0.126-0.305 0.246-0.621 0.246-0.957-0.243 0.235-0.598 0.66-0.246 0.957z"></path>
<path fill="#2051a8" d="M5.27 3.759c-0.014 0.154 0.027 0.304 0.058 0.453 0.253-0.025 0.508-0.035 0.761-0.049-0.129 0.173-0.218 0.371-0.259 0.583 0.28-0.172 0.604-0.521 0.913-0.205-0.050 0.007-0.149 0.020-0.2 0.028 0.138 0.259 0.257 0.527 0.396 0.785 0.072-0.252 0.043-0.507-0.143-0.701 0.048-0.003 0.145-0.008 0.194-0.011-0.215-0.352-0.654-0.394-0.951-0.644-0.225-0.145-0.491-0.457-0.77-0.238z"></path>
<path fill="#2051a8" d="M5.066 2.693c0.239-0.046 0.458-0.161 0.601-0.363-0.255 0.015-0.488 0.124-0.601 0.363z"></path>
<path fill="#2051a8" d="M6.302 2.864c-0.172 0.452 0.473-0.027 0 0v0z"></path>
<path fill="#2051a8" d="M5.875 3.603c-0.131 0.246 0.279 0.016 0 0v0z"></path>
<path fill="#2051a8" d="M8.2 1.688c-0.088-0.087-0.178-0.173-0.268-0.258-0.235 0.248 0.031 0.527 0.268 0.258z"></path>
<path fill="#2051a8" d="M8.332 2.427c-0.026-0.129-0.053-0.257-0.079-0.385-0.072 0.232-0.121 0.47-0.156 0.71 0.043-0.044 0.089-0.088 0.134-0.13 0.276 0.554 0.437-0.251 0.49-0.526-0.111-0.011-0.221-0.021-0.331-0.031-0.020 0.12-0.040 0.24-0.058 0.362z"></path>
<path fill="#2051a8" d="M8.176 3.077c0.13 0.301 0.432 0.425 0.742 0.45-0.142-0.29-0.44-0.413-0.742-0.45z"></path>
<path fill="#2051a8" d="M6.552 3.431c-0.071-0.078-0.221-0.076-0.288 0.003-0.013 0.139 0.297 0.131 0.288-0.003z"></path>
<path fill="#2051a8" d="M7.954 1.854c-0.205 0.205-0.049 0.474 0.023 0.7 0.13-0.216 0.334-0.585-0.023-0.7z"></path>
<path fill="#2051a8" d="M5.979 3.559c0.074 0.471 0.572 0.746 1.009 0.553 0.411-0.205 0.56 0.386 0.846 0.569-0.089 0.255 0.001 0.502 0.145 0.717 0.104-0.149 0.219-0.298 0.269-0.477-0.194-0.266-0.436-0.493-0.671-0.722 0.050-0.039 0.1-0.078 0.151-0.117-0.109-0.057-0.218-0.113-0.326-0.168 0.031-0.123 0.061-0.246 0.092-0.369-0.503 0.055-1.010 0.060-1.514 0.014z"></path>
<path fill="#2051a8" d="M7.087 3.528c0.306-0.028 0.603-0.153 0.736-0.449-0.302 0.036-0.603 0.154-0.736 0.449z"></path>
<path fill="#2051a8" d="M7.696 2.411c-0.063-0.202-0.175-0.39-0.417-0.364 0.058 0.308 0.085 0.694 0.412 0.842 0.011-0.133 0.021-0.266 0.031-0.397 0.055 0.099 0.111 0.199 0.17 0.297-0.011-0.259-0.062-0.513-0.163-0.752-0.013 0.125-0.024 0.249-0.033 0.374z"></path>
<path fill="#2051a8" d="M13.587 9.803c-0.126-0.835-0.814-1.679-1.659-1.821 0.304 0.398 0.821 0.574 1.068 1.024-0.372-0.175-0.659-0.473-0.994-0.702 0.4 0.601 0.801 1.368 1.585 1.499z"></path>
<path fill="#2051a8" d="M12.599 7.83c0.321 0.215 0.71 0.358 0.923 0.701-0.337-0.112-0.63-0.312-0.943-0.473 0.478 0.562 1.061 1.17 1.849 1.205-0.176-0.866-1.057-1.251-1.829-1.433z"></path>
<path fill="#2051a8" d="M4.184 13.252c0.003 0.044 0.007 0.131 0.009 0.175 0.308 0.041 0.742-0.002 0.751-0.318 0.507 0.134 1.018-0.056 1.505-0.19 0.185 0.256 0.325 0.572 0.619 0.725-0.056-0.591-0.653-0.935-0.836-1.484-0.043-0.214-0.253-0.279-0.427-0.355-0.006 0.171-0.009 0.343-0.011 0.515 0.072-0.010 0.144-0.019 0.218-0.028 0.105 0.164 0.21 0.326 0.316 0.491-0.453 0.141-0.932 0.167-1.382 0.315-0-0.056-0.012-0.12-0.041-0.194-0.142-0.011-0.283-0.020-0.425-0.028 0.095 0.077 0.192 0.152 0.29 0.226-0.073 0.082-0.145 0.164-0.217 0.246 0.022-0.083 0.045-0.166 0.069-0.249-0.237-0.16-0.514-0.201-0.792-0.15 0.041 0.185 0.165 0.297 0.355 0.303z"></path>
<path fill="#2051a8" d="M15.149 8.494c-0.411-0.806-1.377-1.039-2.209-1.065 0.35 0.169 0.725 0.287 1.055 0.498-0.459-0.008-0.871-0.243-1.327-0.27 0.774 0.395 1.582 0.874 2.481 0.838z"></path>
<path fill="#2051a8" d="M12.634 5.926c0.619 0.049 1.154-0.367 1.774-0.341-0.501 0.39-1.292 0.216-1.673 0.757 1.121-0.306 2.532-0.312 3.265-1.355-1.174 0.004-2.352 0.362-3.366 0.938z"></path>
<path fill="#2051a8" d="M4.723 3.493c0.144 0.049 0.273-0.202 0.094-0.237-0.14-0.043-0.268 0.2-0.094 0.237z"></path>
<path fill="#2051a8" d="M13.082 6.938c0.361 0.074 0.73 0.106 1.087 0.205-0.529 0.132-1.050-0.13-1.582-0.057 0.181 0.146 0.396 0.249 0.629 0.273 0.808 0.115 1.641 0.245 2.447 0.049-0.749-0.51-1.709-0.548-2.582-0.471z"></path>
<path fill="#2051a8" d="M12.83 6.511c0.51-0.019 1.015-0.171 1.527-0.081-0.415 0.174-0.882 0.122-1.298 0.286 0.983 0.189 2.079 0.059 2.893-0.563-1.039-0.176-2.156-0.072-3.122 0.358z"></path>
<path fill="#2051a8" d="M4.561 12.794c0.15 0.039 0.301 0.081 0.452 0.124 0.188-0.667 0.591-1.272 1.229-1.58-0.109-0.013-0.217-0.026-0.325-0.038-0.036-0.040-0.109-0.119-0.145-0.159-0.361 0.192-0.501 0.604-0.668 0.95-0.138-0.681-0.947-0.748-1.4-0.331 0.132-0.233 0.28-0.457 0.448-0.665-0.211-0.17-0.413-0.352-0.609-0.538-0.123 0.441-0.374 0.892-0.244 1.36 0.183 0.523 0.608 1.236 1.261 0.877z"></path>
<path fill="#2051a8" d="M0.995 4.449c0.589 0.574 1.347 1.009 2.169 1.128-0.539-0.492-1.325-0.68-1.733-1.325 0.588 0.226 1.001 0.728 1.553 1.016-0.188-0.446-0.624-0.69-0.943-1.029-0.416-0.425-0.872-0.818-1.415-1.072-0.002 0.447 0.024 0.951 0.37 1.281z"></path>
<path fill="#2051a8" d="M3.352 4.073c-0.146 0.694 0.353 1.309 0.955 1.58-0.134-0.614-0.291-1.335-0.955-1.58z"></path>
<path fill="#2051a8" d="M8.695 4.84c0.197-0.183 0.367-0.395 0.492-0.634-0.333 0.037-0.439 0.353-0.492 0.634z"></path>
<path fill="#2051a8" d="M3.263 6.341c-0.381-0.541-1.173-0.367-1.675-0.755 0.62-0.030 1.157 0.391 1.777 0.337-1.016-0.569-2.192-0.933-3.365-0.936 0.734 1.040 2.142 1.048 3.263 1.353z"></path>
<path fill="#2051a8" d="M2.196 7.439c0.418-0.059 0.885-0.053 1.218-0.353-0.532-0.072-1.054 0.19-1.584 0.058 0.356-0.099 0.725-0.132 1.086-0.205-0.871-0.078-1.827-0.037-2.576 0.466 0.608 0.159 1.24 0.113 1.856 0.035z"></path>
<path fill="#2051a8" d="M2.971 6.682c-0.468-0.1-0.949-0.126-1.418-0.222 0.002-0.020 0.007-0.062 0.010-0.083 0.541-0.016 1.071 0.099 1.609 0.137-0.967-0.437-2.088-0.538-3.13-0.36 0.825 0.606 1.947 0.79 2.929 0.528z"></path>
<path fill="#2051a8" d="M3.332 7.657c-0.456 0.028-0.871 0.262-1.331 0.27 0.333-0.209 0.711-0.325 1.063-0.498-0.836 0.020-1.786 0.268-2.22 1.054 0.904 0.062 1.711-0.437 2.488-0.825z"></path>
<path fill="#2051a8" d="M4.2 4.719c0.005 0.436 0.171 0.844 0.431 1.189-0.183-0.006-0.366-0.010-0.549-0.011 0.094 0.178 0.193 0.353 0.295 0.527-0.133 0.072-0.264 0.144-0.395 0.22 0.334 0.185 0.548 0.444 0.268 0.794 0.165 0 0.332 0 0.498 0-0.028 0.185-0.055 0.37-0.079 0.556 0.208-0.030 0.405-0.107 0.59-0.205 0.043 0.070 0.089 0.141 0.134 0.212 0.125-0.026 0.249-0.061 0.372-0.096 0.116 0.068 0.232 0.136 0.349 0.205 0.022-0.123 0.044-0.244 0.067-0.366 0.087-0.049 0.174-0.098 0.261-0.148-0.193-0.576-0.848-0.132-1.212-0.46-0.144-0.33 0.17-0.651 0.217-0.979 0.078-0.253-0.18-0.415-0.343-0.554-0.342-0.25-0.622-0.57-0.905-0.882z"></path>
<path fill="#2051a8" d="M6.756 7.732c-0.058-0.103-0.119-0.204-0.18-0.303 0.018-0.144 0.037-0.288 0.056-0.432-0.145-0.004-0.291-0.008-0.435-0.009 0.113 0.296 0.256 0.601 0.559 0.745z"></path>
<path fill="#2051a8" d="M5.701 9.030c-0.021 0.417 0.098 0.828 0.35 1.162 0.103-0.297 0.171-0.634-0.026-0.908-0.021 0.083-0.063 0.251-0.085 0.335-0.074-0.198-0.149-0.396-0.239-0.588z"></path>
<path fill="#2051a8" d="M6.532 10.777c-0.104 0.018-0.207 0.036-0.311 0.055 0.099-0.109 0.195-0.221 0.29-0.334-0.317 0.026-0.633 0.113-0.867 0.339 0.129 0.027 0.26 0.053 0.39 0.081 0.207 0.209 0.372 0.070 0.498-0.141z"></path>
<path fill="#2051a8" d="M6.048 8.232c0.060 0.276 0.148 0.544 0.26 0.803 0.163-0.354 0.418-0.702 0.417-1.104-0.029-0.201-0.227-0.209-0.387-0.209-0.086 0.175-0.179 0.348-0.289 0.509z"></path>
<path fill="#2051a8" d="M8.346 8.92c-0.341 0.297-0.183 0.756 0.050 1.064 0.268-0.331 0.224-0.752-0.050-1.064z"></path>
<path fill="#2051a8" d="M7.97 9.483c-0.259 0.366-0.253 0.902 0.055 1.239 0.201-0.371 0.329-0.942-0.055-1.239z"></path>
<path fill="#2051a8" d="M6.842 11.37c-0.107-0.063-0.214-0.124-0.321-0.185 0.114-0.27 0.389-0.357 0.654-0.408 0.339-0.057 0.413-0.443 0.499-0.716-0.235 0.158-0.464 0.321-0.701 0.476 0.013-0.048 0.040-0.142 0.053-0.19-0.031-0.135-0.062-0.271-0.092-0.405-0.22 0.128-0.422 0.287-0.593 0.476 0.149-0.023 0.299-0.050 0.449-0.077-0.099 0.119-0.196 0.239-0.292 0.361 0.146-0.026 0.292-0.053 0.439-0.078-0.222 0.176-0.555 0.32-0.585 0.636 0.051 0.245 0.323 0.159 0.488 0.11z"></path>
<path fill="#2051a8" d="M6.746 12.038c0.588-0.061 1.067-0.726 0.804-1.29-0.288 0.32-0.656 0.569-0.887 0.938 0.34-0.116 0.574-0.396 0.841-0.619-0.134 0.409-0.548 0.61-0.759 0.97z"></path>
<path fill="#2051a8" d="M6.273 9.333c-0.136-0.484-0.205-1.028-0.582-1.396-0.124 0.527-0.033 1.24 0.582 1.396z"></path>
<path fill="#2051a8" d="M8.556 5.998c0.065-0.371-0.010-0.748-0.234-1.052-0.244 0.374-0.179 0.837 0.234 1.052z"></path>
<path fill="#2051a8" d="M7.443 5.999c0.418-0.218 0.493-0.703 0.198-1.059-0.169 0.326-0.265 0.69-0.198 1.059z"></path>
<path fill="#2051a8" d="M7.086 5.66c-0.221 0.159-0.441 0.318-0.665 0.472 0.384 0.217 0.644-0.098 0.665-0.472z"></path>
<path fill="#2051a8" d="M8.448 4.954c0.175-0.247 0.304-0.524 0.377-0.819-0.286 0.177-0.422 0.488-0.377 0.819z"></path>
<path fill="#2051a8" d="M6.098 6.177c0.003 0.265 0.003 0.681 0.357 0.705 0.48-0.055 0.654-0.597 0.781-0.992-0.29 0.353-0.76 0.805-1.139 0.287z"></path>
<path fill="#2051a8" d="M7.174 4.136c0.077 0.294 0.208 0.571 0.38 0.821 0.042-0.332-0.094-0.644-0.38-0.821z"></path>
<path fill="#2051a8" d="M6.804 4.212c0.119 0.229 0.293 0.423 0.503 0.574-0.050-0.278-0.191-0.541-0.503-0.574z"></path>
<path fill="#2051a8" d="M10.925 3.86c0.074-0.406 0.151-0.812 0.221-1.219-0.445 0.11-0.359 0.848-0.221 1.219z"></path>
<path fill="#2051a8" d="M9.714 3.353c0.234-0.053 0.311-0.294 0.378-0.493-0.25 0.038-0.386 0.251-0.378 0.493z"></path>
<path fill="#2051a8" d="M10.166 4.751c-0.029-0.216-0.118-0.412-0.256-0.579 0.279 0.007 0.559 0.010 0.839 0.013-0.023-0.197 0.006-0.528-0.278-0.523-0.346 0.16-0.629 0.422-0.911 0.672 0.201 0.14 0.401 0.282 0.605 0.418z"></path>
<path fill="#2051a8" d="M9.559 2.865c-0.172 0.451 0.472-0.028 0 0v0z"></path>
<path fill="#2051a8" d="M10.046 3.595c-0.068 0.338 0.328-0.087 0 0v0z"></path>
<path fill="#2051a8" d="M9.813 3.437c-0.1-0.071-0.269-0.073-0.37-0.008 0.022 0.134 0.349 0.144 0.37 0.008z"></path>
<path fill="#2051a8" d="M8.591 3.913c-0.103 0.058-0.207 0.117-0.309 0.176 0.044 0.033 0.090 0.068 0.136 0.103-0.168 0.128-0.294 0.297-0.346 0.503 0.411-0.14 0.591-0.953 1.082-0.502 0.411-0.012 0.787-0.193 0.866-0.631-0.5 0.042-1.003 0.032-1.502-0.014 0.024 0.121 0.048 0.244 0.073 0.365z"></path>
<path fill="#2051a8" d="M9.572 2.416c-0.17 0.121-0.081 0.253 0.055 0.354 0.253-0.067 0.137-0.506-0.055-0.354z"></path>
<path fill="#2051a8" d="M9.175 2.85c0.059 0.202 0.13 0.445 0.367 0.502 0.010-0.241-0.129-0.444-0.367-0.502z"></path>
<path fill="#2051a8" d="M10.435 3.426c0.336-0.337-0.015-0.75-0.237-1.038-0.027 0.364 0.117 0.703 0.237 1.038z"></path>
<path fill="#2051a8" d="M9.515 10.731c-0.149-0.254-0.392-0.423-0.671-0.506 0.163 0.237 0.378 0.447 0.671 0.506z"></path>
<path fill="#2051a8" d="M8.494 8.267c-0.183 0.226-0.225 0.644 0.057 0.811 0.4-0.078 0.243-0.933-0.057-0.811z"></path>
<path fill="#2051a8" d="M9.965 10.922c0.131-0.032 0.261-0.062 0.393-0.093-0.245-0.204-0.549-0.3-0.861-0.336 0.089 0.114 0.182 0.227 0.276 0.337-0.102-0.020-0.205-0.039-0.307-0.057 0.122 0.211 0.289 0.347 0.498 0.148z"></path>
<path fill="#2051a8" d="M8.705 9.57c-0.098 0.234-0.13 0.5 0.017 0.723 0.379-0.162 0.23-0.511-0.017-0.723z"></path>
<path fill="#2051a8" d="M11.132 3.29c-0.069 0.333 0.334-0.069 0 0v0z"></path>
<path fill="#2051a8" d="M10.338 2.329c0.141 0.201 0.356 0.319 0.594 0.366-0.109-0.24-0.343-0.346-0.594-0.366z"></path>
<path fill="#2051a8" d="M7.894 3.076c0.017 0.039 0.051 0.117 0.068 0.156 0.15-0.114 0.301-0.224 0.451-0.337-0.28-0.046-0.565-0.042-0.842 0.018 0.106 0.055 0.215 0.109 0.323 0.163z"></path>
</svg>
