<svg version="1.1" xmlns="http://www.w3.org/2000/svg" width="16" height="16" viewBox="0 0 16 16">
<title>shoplogist</title>
<path fill="#f5db47" d="M10.785 5.9c-0.589 0-1.074 0.479-1.074 1.074s0.485 1.074 1.074 1.074h5.215v-2.147h-5.215zM10.074 7.115c-0.080 0-0.141-0.061-0.141-0.141s0.061-0.141 0.141-0.141c0.080 0 0.141 0.061 0.141 0.141 0 0.074-0.061 0.141-0.141 0.141v0z"></path>
<path fill="#000" d="M5.104 6.967c-0.374 0-0.607 0.19-0.607 0.466 0 0.362 0.368 0.485 0.65 0.552 0.178 0.049 0.399 0.135 0.399 0.344 0 0.166-0.172 0.276-0.442 0.276-0.233 0-0.423-0.074-0.54-0.202l-0.196 0.178c0.153 0.184 0.411 0.276 0.742 0.276 0.313 0 0.693-0.129 0.693-0.546 0-0.38-0.307-0.491-0.632-0.595-0.227-0.061-0.417-0.11-0.417-0.282 0-0.129 0.166-0.215 0.35-0.215 0.166 0 0.307 0.055 0.411 0.178l0.196-0.184c-0.123-0.135-0.331-0.245-0.607-0.245v0z"></path>
<path fill="#000" d="M7.074 8.832v-0.908c0-0.368-0.202-0.552-0.46-0.552-0.147 0-0.282 0.055-0.368 0.178v-0.663l-0.264 0.086v1.859h0.264v-0.945c0.074-0.172 0.184-0.239 0.325-0.239 0.153 0 0.245 0.11 0.245 0.325v0.859h0.258z"></path>
<path fill="#000" d="M7.853 7.378c-0.35 0-0.607 0.258-0.607 0.748s0.258 0.748 0.607 0.748c0.356 0 0.607-0.264 0.607-0.748 0-0.491-0.252-0.748-0.607-0.748v0zM7.853 7.636c0.215 0 0.35 0.166 0.35 0.491 0 0.319-0.129 0.485-0.35 0.485-0.209 0-0.344-0.166-0.344-0.485 0-0.325 0.129-0.491 0.344-0.491v0z"></path>
<path fill="#000" d="M8.871 9.262v-0.564c0.067 0.11 0.178 0.172 0.344 0.172 0.313 0 0.534-0.258 0.534-0.748 0-0.485-0.227-0.748-0.54-0.748-0.166 0-0.307 0.080-0.362 0.184v-0.141h-0.239v1.933l0.264-0.086zM9.16 8.618c-0.129 0-0.252-0.086-0.301-0.252v-0.466c0.043-0.141 0.147-0.264 0.307-0.264 0.209 0 0.325 0.166 0.325 0.491 0 0.331-0.117 0.491-0.331 0.491z"></path>
<path fill="#000" d="M5.27 5.329c0.031 0.012 0.006 0.025 0.006 0.037 0 0.061-0.362 0.104-0.81 0.104l-0.025 0.037-0.074 0.086-0.055 0.080-0.031 0.092-0.037 0.067-0.049 0.012 0.031 0.049-0.055 0.037c0.025 0.049-0.356 0.282-0.356 0.282s-0.19 0.166-0.252 0.172c-0.055 0.012-0.209 0.031-0.209 0.031l-0.252-0.098-0.025-0.012-0.025 0.012-0.282 0.215 0.018 0.166c0 0 0 0.11-0.031 0.147-0.025 0.037-0.098 0.147-0.135 0.19-0.037 0.049-0.074 0.080-0.074 0.080s0.902-0.025 0.969 0.012c0.067 0.037 0.288 0.233 0.172 0.497s-0.583 1.387-0.583 1.387l-0.098 0.037-0.080 0.037-0.012 0.123c0 0-0.025 0.067-0.037 0.123-0.006 0.055 0 0.018-0.006 0.117-0.012 0.098-0.012 0.11-0.012 0.166s-0.006 0.117 0.012 0.153c0.018 0.043 0.006 0.043 0.055 0.080 0.049 0.043 0.11 0.086 0.11 0.086s0.006 0.025-0.031 0.067c-0.037 0.037-0.055 0.031-0.098 0.018-0.037-0.006-0.215-0.117-0.264-0.184s-0.117-0.27-0.135-0.307c-0.025-0.043-0.061-0.061-0.061-0.061l-0.055-0.025c0 0-0.037-0.049-0.080-0.11-0.037-0.055-0.067-0.098-0.092-0.147-0.018-0.043 0.166-0.147 0.166-0.147l0.123 0.012 0.067-0.012c0.031-0.061 0.037-0.086 0.037-0.086-0.043-0.061-0.025-0.080-0.006-0.117s0.055-0.049 0.055-0.092c0-0.037 0.031-0.129 0.037-0.166 0.012-0.037 0.037-0.166 0.037-0.166s0.055-0.055 0.055-0.117c0-0.055 0.012-0.067 0.018-0.135 0.012-0.074 0.061-0.215 0.061-0.215l0.086-0.16c0 0-0.233 0.092-0.497 0.16s-0.448 0.037-0.448 0.037c0 0-0.681 1.601-0.791 1.804-0.11 0.209-0.135 0.27-0.147 0.319-0.006 0.049-0.129 0.233-0.129 0.233l-0.055 0.129-0.055 0.117-0.012 0.098c-0.018 0.043 0.025 0.031-0.043 0.043-0.074 0.006-0.098-0.025-0.098-0.025l-0.018 0.104c0 0 0.018 0.043 0 0.086-0.018 0.037-0.018 0.11-0.018 0.11s0.006 0.080 0.006 0.117c0 0.037 0.012-0.018 0 0.080-0.006 0.098 0.018 0.252 0.018 0.252 0.061 0.092 0.135 0.141 0.135 0.141 0.037 0.080-0.006 0.080-0.006 0.080l-0.074 0.018-0.123-0.012c0 0-0.11-0.006-0.147-0.043s-0.080-0.141-0.098-0.178c-0.018-0.037-0.074-0.104-0.074-0.104s-0.025-0.092-0.043-0.129c-0.025-0.037-0.025-0.018-0.086-0.098-0.055-0.080-0.067-0.141-0.067-0.141 0.031-0.074 0.172-0.233 0.172-0.233l0.092-0.055 0.098-0.074v-0.086c0 0-0.092-0.031-0.11-0.080s-0.025-0.117-0.025-0.117l-0.037-0.129 0.098 0.025 0.080-0.037c0 0 0.025-0.018 0.037-0.086 0.012-0.074 0.031-0.074 0.031-0.117 0-0.049 0.037-0.043 0.043-0.080 0.012-0.037 0.018-0.117 0.031-0.153 0.006-0.037 0.006-0.092 0.025-0.129 0.025-0.037 0.025-0.067 0.025-0.067l0.043-0.129c0 0 0.037-0.074 0.074-0.11 0.025-0.037 0.018-0.043 0.025-0.098 0.012-0.049 0.074-0.086 0.074-0.086 0.049-0.067 0.025-0.080 0.055-0.123 0.031-0.037 0.074-0.080 0.074-0.080s0.043-0.055 0.043-0.104c0-0.049 0.012-0.092 0.018-0.159 0.012-0.067 0.092-0.417 0.098-0.466 0.012-0.043 0.049-0.067 0.025-0.123-0.031-0.061-0.049-0.141-0.061-0.184-0.006-0.049-0.006-0.074 0-0.147 0.012-0.080 0-0.11 0.037-0.184 0.043-0.080 0.031-0.037 0.074-0.11 0.037-0.067 0.129-0.166 0.129-0.166l0.055-0.080c0 0-0.098-0.037-0.184-0.055-0.092-0.018-0.227-0.049-0.38 0-0.159 0.049-0.393-0.098-0.393-0.098s0.098-0.055 0.153-0.215c0.061-0.16 0.129-0.258 0.184-0.313 0.061-0.055 0.123-0.172 0.123-0.172s0.104 0.006 0.123 0.080c0.018 0.067 0.018 0.153 0.092 0.141 0.067-0.006 0.153-0.086 0.209-0.123 0.043-0.037 0.098-0.074 0.098-0.074l-0.080-0.19 0.264-0.092c0 0 0.043-0.006 0.055-0.067 0.006-0.061 0.031-0.331 0.031-0.331l-0.012-0.104c-0.037-0.006-0.067-0.006-0.080-0.012 0 0-0.209 0.025-0.258 0.025-0.043 0-0.215-0.006-0.215-0.006h-0.19l-0.061 0.025-0.098 0.012c0 0-0.104 0.018-0.141 0.049-0.043 0.025-0.11 0.202-0.11 0.202l-0.080-0.080-0.049 0.11c0 0-0.025 0.049-0.031 0.11-0.006 0.043-0.049 0.061-0.067 0.074-0.025 0.012-0.055 0.012-0.067 0.006-0.025-0.012-0.018-0.025-0.018-0.025s-0.067 0.037-0.123 0.006c-0.055-0.025-0.104-0.301-0.104-0.301s0.025-0.086 0.025-0.135c0-0.049 0.178-0.11 0.166-0.166l0.031-0.098c0 0 0.736-0.245 0.791-0.233 0.043 0.006 0.233-0.049 0.288-0.061 0.055-0.006 0.074-0.006 0.141 0 0.067 0.012 0.067 0.012 0.104 0.025 0.037 0.006 0.080 0.006 0.117 0 0.043-0.012 0.080 0.018 0.141 0.006 0.055-0.006 0.104-0.006 0.104-0.006l0.074-0.031 0.098-0.037 0.153-0.031 0.031-0.025 0.147 0.055 0.104 0.080c0 0 0.018 0.006 0.031 0.006 0.018-0.006 0.037-0.018 0.037-0.018s-0.067-0.067-0.11-0.117c-0.037-0.049-0.055-0.166-0.055-0.166l-0.018-0.147c0 0 0.006-0.061 0.049-0.129 0.031-0.055 0.086-0.11 0.117-0.141 0.049-0.055 0.147-0.098 0.209-0.11 0.055-0.006 0.19 0 0.245 0.012 0.043 0.006 0.117 0.037 0.166 0.055 0.043 0.018 0.117 0.067 0.117 0.067l0.018 0.074-0.080 0.055c0 0 0.006 0.037 0.018 0.098 0.006 0.061 0.018 0.061 0.018 0.11s0 0.092 0 0.092c0 0 0.012 0.025 0.031 0.043s0.037 0.025 0.037 0.025c0 0.012 0 0.031-0.006 0.031-0.055 0.037-0.061 0.074-0.061 0.074 0.006 0.031 0.018 0.074 0.025 0.104s-0.006 0.061-0.006 0.061c-0.037 0.092-0.055 0.11-0.055 0.11s-0.018 0.037-0.098 0.025c-0.080-0.006-0.080-0.049-0.141-0.006-0.055 0.037-0.067 0.025-0.080 0.080-0.006 0.043-0.025 0.086-0.006 0.123 0.018 0.043 0.086 0.104 0.086 0.104l0.159 0.153 0.080 0.098c0 0 0.043 0.049 0.086 0.049s0.080-0.012 0.080-0.012v0.012c0.025-0.006 0.086-0.012 0.123-0.018 0.037-0.012 0.288-0.184 0.288-0.184l0.055-0.080 0.049 0.067 0.074-0.080c0 0 0.018-0.135 0.025-0.19-0.245-0.025-0.411-0.055-0.411-0.098 0-0.006-0.025-0.018 0-0.025-0.092-0.018-0.098-0.043-0.098-0.061 0-0.025 0.104-0.055 0.282-0.080 0 0.043 0.018 0.098 0.080 0.098 0.258 0 0.926 0 1.147 0 0.049 0 0.074-0.055 0.074-0.092 0.16 0.018 0.252 0.049 0.252 0.074 0.018 0.006 0.012 0.025-0.074 0.043v0zM4.141 5.464c0.006 0.031 0.012 0.055 0.012 0.055s0.049 0.012 0.061-0.055c-0.025 0-0.049 0-0.074 0v0zM5.055 5.262c-0.080 0-0.313 0-0.552 0 0-0.055 0-0.46 0-0.644v0c0.239 0 0.466 0 0.546 0 0.012 0 0.043 0.018 0.055 0.031v0.521c0 0.006 0 0.012 0 0.018-0.012 0.025-0.037 0.074-0.049 0.074v0zM4.988 4.728l-0.356 0.049 0.012 0.104 0.362-0.055-0.018-0.098zM4.491 4.538h0.35c0.025 0 0.147 0.018 0.221 0.043h-0.558c-0.006-0.018-0.012-0.031-0.012-0.043v0zM3.884 4.575c0.086-0.018 0.215-0.037 0.239-0.037h0.337c0 0.012 0 0.018 0 0.037h-0.577zM4.46 5.262c-0.239 0-0.472 0-0.589 0-0.037 0-0.055-0.074-0.061-0.098v-0.528c0.006-0.018 0.025-0.025 0.043-0.025 0.141 0 0.374 0 0.601 0 0.006 0.19 0.006 0.589 0.006 0.65v0z"></path>
<path fill="#000" d="M10.785 7.47h0.166v-1.209l-0.166 0.055v1.153z"></path>
<path fill="#000" d="M11.46 6.569c-0.221 0-0.38 0.16-0.38 0.46 0 0.307 0.153 0.466 0.38 0.466 0.215 0 0.374-0.16 0.374-0.466 0-0.301-0.153-0.46-0.374-0.46v0zM11.46 6.728c0.129 0 0.215 0.098 0.215 0.301s-0.086 0.307-0.215 0.307c-0.135 0-0.215-0.104-0.215-0.307 0-0.196 0.080-0.301 0.215-0.301v0z"></path>
<path fill="#000" d="M12.301 7.458c0.080 0 0.159-0.043 0.215-0.11 0 0.147-0.117 0.252-0.276 0.301l0.031 0.141c0.301-0.055 0.399-0.258 0.399-0.497v-0.699h-0.159v0.086c-0.043-0.067-0.129-0.104-0.221-0.104-0.184 0-0.337 0.153-0.337 0.448 0 0.288 0.135 0.436 0.35 0.436v0zM12.319 7.299c-0.129 0-0.215-0.086-0.215-0.288 0-0.196 0.086-0.288 0.209-0.288 0.098 0 0.159 0.074 0.196 0.16v0.27c-0.043 0.098-0.104 0.147-0.19 0.147v0z"></path>
<path fill="#000" d="M12.804 6.593v0.877h0.166v-0.877h-0.166zM12.798 6.378c0 0.043 0.037 0.086 0.086 0.086s0.092-0.043 0.092-0.086c0-0.049-0.037-0.092-0.092-0.092-0.049 0-0.086 0.043-0.086 0.092v0z"></path>
<path fill="#000" d="M13.405 6.562c-0.135 0-0.307 0.061-0.307 0.245 0 0.233 0.258 0.245 0.386 0.319 0.055 0.031 0.098 0.061 0.098 0.104 0 0.080-0.098 0.104-0.178 0.104-0.104 0-0.221-0.031-0.282-0.086l-0.067 0.129c0.086 0.067 0.202 0.11 0.35 0.11 0.159 0 0.344-0.061 0.344-0.27 0-0.245-0.258-0.258-0.405-0.337-0.043-0.025-0.086-0.055-0.086-0.080 0-0.055 0.055-0.092 0.135-0.092 0.061 0 0.178 0.025 0.227 0.080l0.067-0.129c-0.061-0.067-0.153-0.098-0.282-0.098v0z"></path>
<path fill="#000" d="M14.080 7.47c0.067 0 0.123-0.018 0.147-0.043l0.031-0.178c-0.031 0.037-0.080 0.061-0.123 0.061s-0.080-0.031-0.080-0.080v-0.503h0.178v-0.135h-0.178v-0.301l-0.166 0.055v0.245h-0.11v0.135h0.11v0.54c0 0.135 0.098 0.202 0.19 0.202v0z"></path>
<path fill="#000" d="M14.362 6.593v0.877h0.166v-0.877h-0.166zM14.356 6.378c0 0.043 0.043 0.086 0.086 0.086 0.049 0 0.092-0.043 0.092-0.086 0-0.049-0.037-0.092-0.092-0.092-0.043 0-0.086 0.043-0.086 0.092v0z"></path>
<path fill="#000" d="M15.049 6.728c0.080 0 0.135 0.037 0.178 0.123l0.123-0.11c-0.049-0.11-0.159-0.172-0.294-0.172-0.233 0-0.393 0.16-0.393 0.46 0 0.307 0.166 0.466 0.374 0.466 0.147 0 0.245-0.080 0.307-0.16l-0.117-0.104c-0.049 0.061-0.117 0.104-0.178 0.104-0.129 0-0.221-0.104-0.221-0.307-0.006-0.196 0.086-0.301 0.221-0.301v0z"></path>
<path fill="#f5db47" d="M2.926 5.612c0 0 0.031-0.025 0.006-0.080-0.012-0.018-0.031-0.043-0.031-0.043-0.055 0.006-0.061 0.092-0.061 0.092l0.025 0.043-0.049 0.055c0 0-0.061 0.589-0.454 0.595-0.356 0-0.699-0.239-0.699-0.239s-0.123 0-0.313 0.049c-0.074 0.018-0.074 0.055-0.074 0.055l0.147 0.221c0 0 0.442 0.252 0.828 0.184 0.423-0.067 0.564-0.405 0.626-0.546 0.055-0.129 0.061-0.288 0.061-0.288-0.006-0.018-0.012-0.037-0.018-0.055-0.018-0.018 0.006-0.043 0.006-0.043v0z"></path>
</svg>
